<?xml version="1.0" encoding="utf-8"?>
<!-- Generator: Adobe Illustrator 18.0.0, SVG Export Plug-In . SVG Version: 6.00 Build 0)  -->
<!DOCTYPE svg PUBLIC "-//W3C//DTD SVG 1.1//EN" "http://www.w3.org/Graphics/SVG/1.1/DTD/svg11.dtd">
<svg version="1.1" id="Layer_1" xmlns="http://www.w3.org/2000/svg" xmlns:xlink="http://www.w3.org/1999/xlink" x="0px" y="0px"
	 viewBox="0 0 176 176" enable-background="new 0 0 176 176" xml:space="preserve">
<g>
	<circle fill="#FFFFFF" cx="88" cy="88" r="88"/>
	<g>
		<path id="path-2_3_" fill="#F1CE88" d="M72.8,74.9L71,75.7l-9.2-20c-0.2-0.4-0.6-0.7-1-0.7H45v-2h17c0.6,0,1.2,0.4,1.5,0.9
			L72.8,74.9z"/>
		<path id="path-5_2_" opacity="0.1" enable-background="new    " d="M71.5,119.1h35c0.8,0,1.5,0.7,1.5,1.5s-0.7,1.5-1.5,1.5h-35
			c-0.8,0-1.5-0.7-1.5-1.5S70.7,119.1,71.5,119.1z"/>
		<path fill="#F1CE88" d="M110.5,60.6c-4.7,4.7-4.7,12.3,0,17s12.3,4.7,17,0s4.7-12.3,0-17S115.2,55.9,110.5,60.6z M116.9,74
			c-0.8,0.8-4.1,2.8-4.8,2c-0.8-0.8,1.2-4.1,2-4.8c0.8-0.8,4.1-2.8,4.8-2C119.7,70,117.7,73.3,116.9,74z M126,76.1
			c-0.8,0.8-4.1-1.2-4.8-2c-0.8-0.8-2.8-4.1-2-4.8c0.8-0.8,4.1,1.2,4.8,2C124.7,72,126.7,75.3,126,76.1z M118.9,69
			c-0.8,0.8-4.1-1.2-4.8-2c-0.8-0.8-2.8-4.1-2-4.8c0.8-0.8,4.1,1.2,4.8,2C117.7,64.9,119.7,68.2,118.9,69z M123.9,67
			c-0.8,0.8-4.1,2.8-4.8,2c-0.8-0.8,1.2-4.1,2-4.8c0.8-0.8,4.1-2.8,4.8-2C126.7,62.9,124.7,66.2,123.9,67z"/>
		<path fill="#82C5D4" d="M91,114.9V91.8c0-0.3,0.1-0.6,0.4-0.8l26.4-20.5c1-0.8,0.5-2.5-0.8-2.5H61c-1.3,0-1.9,1.7-0.8,2.5L86.6,91
			c0.2,0.2,0.4,0.5,0.4,0.8v23.1c0,0.4-0.2,0.7-0.6,0.9l-2.6,1.2c-1.6,0.7-3.3,1.1-5.1,1.1H78c-0.6,0-1,0.4-1,1l0,0c0,0.6,0.4,1,1,1
			h22c0.6,0,1-0.4,1-1l0,0c0-0.6-0.4-1-1-1h-0.7c-1.7,0-3.5-0.4-5.1-1.1l-2.6-1.2C91.2,115.7,91,115.3,91,114.9z"/>
		<path fill="#ABDDE8" d="M111.6,75.3c-1.5,1-7.7,4.8-15.6,4.8c-5.1,0-11.1-5-16-5c-5.8,0-10.2,1.4-11.6,1.8l16.4,12.7
			c1.4,1.1,2.2,2.7,2.2,4.4v20.6h4V94c0-1.7,0.8-3.3,2.1-4.3L111.6,75.3z"/>
	</g>
</g>
</svg>
