<?xml version="1.0" encoding="utf-8"?>
<!-- Generator: Adobe Illustrator 18.0.0, SVG Export Plug-In . SVG Version: 6.00 Build 0)  -->
<!DOCTYPE svg PUBLIC "-//W3C//DTD SVG 1.1//EN" "http://www.w3.org/Graphics/SVG/1.1/DTD/svg11.dtd">
<svg version="1.1" id="Layer_1" xmlns="http://www.w3.org/2000/svg" xmlns:xlink="http://www.w3.org/1999/xlink" x="0px" y="0px"
	 viewBox="0 0 176 176" enable-background="new 0 0 176 176" xml:space="preserve">
<g>
	<circle fill="#FFFFFF" cx="88" cy="88" r="88"/>
	<g>
		<path opacity="0.1" enable-background="new    " d="M86.5,134H75.2c-0.7,0-1.3-0.6-1.3-1.3l0,0c0-0.7,0.6-1.3,1.3-1.3h11.3
			c0.7,0,1.3,0.6,1.3,1.3l0,0C87.8,133.5,87.2,134,86.5,134z"/>
		<path opacity="0.1" enable-background="new    " d="M120,134h-6c-0.6,0-1-0.5-1-1v-0.6c0-0.6,0.5-1,1-1h6c0.6,0,1,0.5,1,1v0.6
			C121,133.7,120.5,134,120,134z"/>
		<g>
			<path fill="#F1CE88" d="M119.8,129.6L72.1,44.9l0,0c-0.7-1.2-2.5-0.7-2.8,0.6c-0.3,1.2,1,1.4-0.8,2.4l-12.2,6.9
				c-0.3,0.1-0.4,0.5-0.2,0.7c0.1,0.3,0.5,0.4,0.7,0.2l12.4-7c0.2-0.1,0.5,0,0.6,0.2s0,0.5-0.2,0.6l-12.4,7
				c-0.3,0.1-0.4,0.5-0.2,0.7c0.1,0.3,0.5,0.4,0.7,0.2l12.4-7l0,0c0.2-0.1,0.5,0,0.6,0.2s0,0.5-0.2,0.6l0,0l-12.4,7
				c-0.3,0.1-0.4,0.5-0.2,0.7c0.1,0.3,0.5,0.4,0.7,0.2l12.3-6.9c0,0,0-0.1,0.1-0.1c0.2-0.1,0.5,0,0.6,0.2s0,0.5-0.2,0.6l0,0l-12.4,7
				c-0.3,0.1-0.4,0.5-0.2,0.7c0.1,0.3,0.5,0.4,0.7,0.2l12.4-7l0,0c0.2-0.1,0.5,0,0.6,0.2s0,0.5-0.2,0.6l0,0l-12.4,7
				c-0.3,0.1-0.4,0.5-0.2,0.7c0.1,0.3,0.5,0.4,0.7,0.2l12.4-7l0,0c0.2-0.1,0.5,0,0.6,0.2s0,0.5-0.2,0.6l0,0l-12.4,7
				c-0.3,0.1-0.4,0.5-0.2,0.7c0.2,0.2,0.5,0.4,0.7,0.2l12.4-7l0,0c0.2-0.1,0.5,0,0.6,0.2s0,0.5-0.2,0.6l0,0l-12.4,7
				c-0.3,0.1-0.4,0.5-0.2,0.7c0.1,0.3,0.5,0.4,0.7,0.2l12.3-7l0,0c0.2-0.1,0.5,0,0.6,0.2s0,0.4-0.1,0.6l0,0l-12.4,7
				c-0.3,0.1-0.4,0.5-0.2,0.7c0.1,0.3,0.5,0.4,0.7,0.2l12.3-6.9c0,0,0-0.1,0.1-0.1c0.2-0.1,0.5,0,0.6,0.2s0,0.5-0.2,0.6l0,0l-12.4,7
				c-0.3,0.1-0.4,0.5-0.2,0.7c0.1,0.3,0.5,0.4,0.7,0.2l12.4-7l0,0c0.2-0.1,0.5,0,0.6,0.2s0,0.5-0.2,0.6l0,0l-12.4,7
				c-0.3,0.1-0.4,0.5-0.2,0.7c0.1,0.3,0.5,0.4,0.7,0.2l12.4-7l0,0c0.2-0.1,0.5,0,0.6,0.2c0.1,0.2,0,0.5-0.2,0.6l0,0l-12.4,7
				c-0.3,0.1-0.4,0.5-0.2,0.7c0.1,0.3,0.5,0.4,0.7,0.2l12.3-6.9c0,0,0-0.1,0.1-0.1c0.2-0.1,0.5,0,0.6,0.2s0,0.5-0.2,0.6l0,0l-12.4,7
				c-0.3,0.1-0.4,0.5-0.2,0.7c0.1,0.3,0.5,0.4,0.7,0.2l12.4-7l0,0c0.2-0.1,0.5,0,0.6,0.2s0,0.5-0.2,0.6l0,0l-12.4,7
				c-0.3,0.1-0.4,0.5-0.2,0.7s0.5,0.4,0.7,0.2l12.4-7l0,0c0.2-0.1,0.5,0,0.6,0.2s0,0.5-0.2,0.6l0,0l-12.4,7
				c-0.3,0.1-0.4,0.5-0.2,0.7c0.1,0.3,0.5,0.4,0.7,0.2l12.4-7l0,0c0.2-0.1,0.5,0,0.6,0.2s0,0.5-0.2,0.6l0,0l-12.4,7
				c-0.3,0.1-0.4,0.5-0.2,0.7c0.1,0.3,0.5,0.4,0.7,0.2l12.3-7l0,0c0.2-0.1,0.5,0,0.6,0.2s0,0.4-0.1,0.6l0,0l-12.4,7
				c-0.3,0.1-0.4,0.5-0.2,0.7c0.1,0.3,0.5,0.4,0.7,0.2l12.3-6.9c0,0,0-0.1,0.1-0.1c0.2-0.1,0.5,0,0.6,0.2s0,0.5-0.2,0.6l0,0l-12.4,7
				c-0.3,0.1-0.4,0.5-0.2,0.7c0.1,0.3,0.5,0.4,0.7,0.2l12.4-7l0,0c0.2-0.1,0.5,0,0.6,0.2s0,0.5-0.2,0.6l0,0l-12.4,7
				c-0.3,0.1-0.4,0.5-0.2,0.7c0.1,0.3,0.5,0.4,0.7,0.2l12.4-7l0,0c0.2-0.1,0.5,0,0.6,0.2s0,0.5-0.2,0.6l0,0l-12.4,7
				c-0.3,0.1-0.4,0.5-0.2,0.7c0.1,0.3,0.5,0.4,0.7,0.2l12.3-7c0,0,0,0,0-0.1c0.2-0.1,0.5,0,0.6,0.2s0,0.5-0.2,0.6l0,0l-12.4,7
				c-0.3,0.1-0.4,0.5-0.2,0.7c0.1,0.3,0.5,0.4,0.7,0.2l12.4-7l0,0c0.2-0.1,0.5,0,0.6,0.2s0,0.5-0.2,0.6l0,0l-12.4,7
				c-0.3,0.1-0.4,0.5-0.2,0.7c0.1,0.3,0.5,0.4,0.7,0.2l12.4-7l0,0c0.2-0.1,0.5,0,0.6,0.2s0,0.5-0.2,0.6l0,0l-12.4,7
				c-0.3,0.1-0.4,0.5-0.2,0.7s0.5,0.4,0.7,0.2l12.4-7l0,0c0.2-0.1,0.5,0,0.6,0.2s0,0.5-0.2,0.6l0,0l-12.4,7
				c-0.3,0.1-0.4,0.5-0.2,0.7c0.1,0.3,0.5,0.4,0.7,0.2l12.4-7l0,0c0.2-0.1,0.5,0,0.6,0.2s0,0.4-0.1,0.6l0,0l-12.4,7
				c-0.3,0.1-0.4,0.5-0.2,0.7c0.1,0.3,0.5,0.4,0.7,0.2l12.3-7c0,0,0,0,0-0.1c0.2-0.1,0.5,0,0.6,0.2s0,0.5-0.2,0.6l0,0l-12.4,7
				c-0.3,0.1-0.4,0.5-0.2,0.7c0.1,0.3,0.5,0.4,0.7,0.2l12.3-7c0,0,0,0,0.1-0.1c0.2-0.1,0.5,0,0.6,0.2s0,0.5-0.2,0.6l0,0l-12.4,7
				c-0.3,0.1-0.4,0.5-0.2,0.7c0.1,0.3,0.5,0.4,0.7,0.2l12.3-7c0,0,0,0,0-0.1c0.2-0.1,0.5,0,0.6,0.2s0,0.5-0.2,0.6l0,0l-12.4,7
				c-0.3,0.1-0.4,0.5-0.2,0.7c0.1,0.3,0.5,0.4,0.7,0.2l12.3-6.9l0.1-0.1c0.2-0.1,0.5,0,0.6,0.2s0,0.5-0.2,0.6v0.1l-12.4,7
				c-0.3,0.1-0.4,0.5-0.2,0.7c0.1,0.3,0.5,0.4,0.7,0.2l12.3-6.9c0,0,0-0.1,0.1-0.1c0.2-0.1,0.5,0,0.6,0.2s0,0.5-0.2,0.6l0,0l-12.4,7
				c-0.3,0.1-0.4,0.5-0.2,0.7s0.5,0.4,0.7,0.2l12.3-6.9c0,0,0-0.1,0.1-0.1c0.2-0.1,0.5,0,0.6,0.2s0,0.5-0.2,0.6l0,0l-12.4,7
				c-0.3,0.1-0.4,0.5-0.2,0.7c0.1,0.3,0.5,0.4,0.7,0.2L95,97.8c0,0,0-0.1,0.1-0.1c0.2-0.1,0.5,0,0.6,0.2s0,0.5-0.2,0.6l0,0l-12.4,7
				c-0.3,0.1-0.4,0.5-0.2,0.7c0.1,0.3,0.5,0.4,0.7,0.2l12.4-7l0,0c0.2-0.1,0.5,0,0.6,0.2s0,0.5-0.2,0.6h-0.1L84,107.1
				c-0.3,0.1-0.4,0.5-0.2,0.7c0.1,0.3,0.5,0.4,0.7,0.2l12.3-6.9l0.1-0.1c0.2-0.1,0.5,0,0.6,0.2s0,0.5-0.2,0.6v0.1l-12.4,7
				c-0.3,0.1-0.4,0.5-0.2,0.7c0.1,0.3,0.5,0.4,0.7,0.2l12.4-7l0,0c0.2-0.1,0.5,0,0.6,0.2s0,0.5-0.2,0.6l0,0l-12.4,7
				c-0.3,0.1-0.4,0.5-0.2,0.7c0.1,0.3,0.5,0.4,0.7,0.2l12.4-7l0,0c0.2-0.1,0.5,0,0.6,0.2s0,0.5-0.2,0.6l0,0l-12.4,7
				c-0.3,0.1-0.4,0.5-0.2,0.7c0.1,0.3,0.5,0.4,0.7,0.2l12.4-7l0,0l0,0l0,0l0,0c0.2-0.1,0.5,0,0.6,0.2s0,0.4-0.1,0.6l0,0l-12.4,7
				c-0.3,0.1-0.4,0.5-0.2,0.7c0.1,0.3,0.5,0.4,0.7,0.2l12.4-7l0,0l0,0c0.2-0.1,0.4,0,0.5,0.1c0.1,0.2,0,0.4-0.1,0.5c0,0,0,0-0.1,0
				l0,0l-11.8,6.7c-0.3,0.1-0.2,0.6,0.1,0.6l6.3-1.4c3.9-0.9,8,0.5,10.5,3.6c0.5,0.7,1,1.3,1.3,1.9l6.5,11.5c0.6,1.1,2,1.4,3,0.8
				l0,0C120,132,120.4,130.6,119.8,129.6z"/>
			<path fill="#82C5D4" d="M90,87.9c5.6-13.7,13.7-34.5,15.7-42l-2.5,2.4c-2.6,2.5-4.3,5.1-5.3,7.3L83.7,89.2L83,91
				c0,0-18,10.8-18.2,10.8c-0.2-0.1-0.3-0.3-0.3-0.5v-0.1l0,0l0,0c-0.2-2.1-0.8-3.8-2.7-5c-3.9-2.5-9.5-0.5-12,2.9
				c-2.5,3.5-2.7,9,1.3,11.5c0.7,0.4,2.9,1,4.6,1.4c1.3,0.3,21.7-12.5,25.2-12.6c0.4,1.8-7.8,25.8-7.5,26.8c0.7,1.7,1.8,4.2,2.4,4.8
				c3.2,3.4,8.6,2.1,11.5-1.1c2.9-3.1,4-8.7,0.8-12.1c-1.6-1.7-3.6-2.2-5.7-1.9l0,0l0,0h-0.1c-0.3,0-0.5,0-0.6-0.2s0-0.4,0.3-1.1
				c0.6-1.3,3.2-11.8,5.4-16.4l1.1-2.7l1.5-1l27.8-18.3c3-2,6.4-5.2,8.7-9.3l1.5-2.7C121,67.9,102.8,79.8,90,87.9z M60.5,107
				c-2.3,2.2-7.1,3.5-9.7,1c-2.5-2.5-0.7-6.8,1.6-9c2.3-2.2,7-3.5,9.5-0.9C64.4,100.5,62.8,104.8,60.5,107z M86.1,117.8
				c2.9,2.1,2.5,6.9,0.6,9.5c-1.8,2.6-5.7,5.1-8.6,3s-2.5-7.1-0.6-9.7C79.3,118.1,83.2,115.8,86.1,117.8z"/>
		</g>
	</g>
</g>
</svg>
