<?xml version="1.0" encoding="utf-8"?>
<!-- Generator: Adobe Illustrator 18.0.0, SVG Export Plug-In . SVG Version: 6.00 Build 0)  -->
<!DOCTYPE svg PUBLIC "-//W3C//DTD SVG 1.1//EN" "http://www.w3.org/Graphics/SVG/1.1/DTD/svg11.dtd">
<svg version="1.1" id="Layer_1" xmlns="http://www.w3.org/2000/svg" xmlns:xlink="http://www.w3.org/1999/xlink" x="0px" y="0px"
	 viewBox="0 0 176 176" enable-background="new 0 0 176 176" xml:space="preserve">
<g>
	<circle fill="#FFFFFF" cx="88" cy="88" r="88"/>
	<g>
		<path id="path-1_1_" fill="#F1CE88" d="M132.5,81.4c-3.4,11.4-12.5,19.1-20.5,17.3c-8-1.9-12.8-9-9.5-20.4S114.7,61,123,61
			C131.9,61,137.7,64.1,132.5,81.4z M122,65.6c-6.2,0-7.5,6.6-10,15.1c-2.5,8.6-4.5,11.4,1.5,12.8s9-2.5,11.5-11
			S129.4,65.6,122,65.6z"/>
		<path id="path-2_1_" opacity="0.1" enable-background="new    " d="M47.5,111h78c1.1,0,2,0.9,2,2s-0.9,2-2,2h-78c-1.1,0-2-0.9-2-2
			S46.4,111,47.5,111z"/>
		<path id="path-3_1_" fill="#ABDDE8" d="M106.5,102h-20h-20l-12-37.7C54,62.7,55.2,61,56.9,61h29.6h29.6c1.7,0,2.9,1.6,2.4,3.3
			L106.5,102z"/>
		<path fill="#82C5D4" d="M101.5,75c-8.6,0-19.4-7-28-7c-9,0-15.8,2.5-16.8,2.9l9.8,31.1h20h20l9.5-29.8C113,73.3,107.8,75,101.5,75
			z"/>
		<path id="path-5_1_" fill="#ABDDE8" d="M43,102h87c0.8,0,1.5,0.7,1.5,1.5s-0.7,1.5-1.5,1.5H43c-0.8,0-1.5-0.7-1.5-1.5
			S42.2,102,43,102z"/>
		<path id="path-6_1_" fill="#82C5D4" d="M106.5,109l-3.6,3H70.1l-3.6-3L43,105h87L106.5,109z"/>
	</g>
</g>
</svg>
