<?xml version="1.0" encoding="utf-8"?>
<!-- Generator: Adobe Illustrator 18.0.0, SVG Export Plug-In . SVG Version: 6.00 Build 0)  -->
<!DOCTYPE svg PUBLIC "-//W3C//DTD SVG 1.1//EN" "http://www.w3.org/Graphics/SVG/1.1/DTD/svg11.dtd">
<svg version="1.1" id="Layer_1" xmlns="http://www.w3.org/2000/svg" xmlns:xlink="http://www.w3.org/1999/xlink" x="0px" y="0px"
	 viewBox="0 0 176 176" enable-background="new 0 0 176 176" xml:space="preserve">
<g>
	<circle fill="#FFFFFF" cx="88" cy="88" r="88"/>
	<g>
		<path id="path-1_2_" opacity="0.1" enable-background="new    " d="M46.7,104.1h82c1.4,0,2.5,1.1,2.5,2.5s-1.1,2.5-2.5,2.5h-82
			c-1.4,0-2.5-1.1-2.5-2.5S45.3,104.1,46.7,104.1z"/>
		<path id="path-4_1_" fill="#F1CE88" d="M132.2,87.9C132.2,87.9,132.2,88.1,132.2,87.9c0,1.7-1.3,3.1-3,3.1s-3-1.3-3-3
			c0,0,0,0,0-0.1c-0.2,0-0.3,0.1-0.5,0.1s-0.3,0-0.5-0.1c0,0,0,0,0,0.1c0,1.7-1.3,3-3,3s-3-1.3-3-3c0-0.2,0-0.4,0.1-0.6
			c-0.1,0.1-0.3,0.2-0.5,0.3c0.3,0.3,0.4,0.8,0.4,1.2c0,1.1-0.9,2-2,2s-2-0.9-2-2c0-0.7,0.3-1.3,0.8-1.6c-0.5-0.5-0.8-1.1-0.8-1.9
			c0-1.4,1.1-2.5,2.5-2.5s2.5,1.1,2.5,2.5c0,0.1,0,0.2,0,0.3c0.5-0.5,1.2-0.8,2-0.8c0.4,0,0.7,0.1,1,0.2c0.2-1.2,1.2-2.2,2.5-2.2
			s2.3,1,2.5,2.2c0.3-0.1,0.7-0.2,1-0.2l0,0c0.2-1.1,1.2-2,2.5-2c1.4,0,2.5,1.1,2.5,2.5C134.2,86.7,133.3,87.7,132.2,87.9z
			 M113.2,91.1c-1.1,0-2-0.9-2-2c0-0.1,0-0.1,0-0.2c-0.3,0.1-0.7,0.2-1,0.2c-0.8,0-1.5-0.3-2.1-0.8c-0.3,1.1-1.3,1.8-2.4,1.8
			c-0.2,0-0.5,0-0.7-0.1c-0.3,0.7-1,1.1-1.8,1.1c-1.1,0-2-0.9-2-2c0-0.1,0-0.1,0-0.2c-1.2-0.4-2-1.5-2-2.8c0-1.7,1.3-3,3-3
			c1.3,0,2.5,0.9,2.9,2.1c0.2-0.1,0.4-0.1,0.6-0.1c0.6,0,1.1,0.2,1.5,0.5c0.2-1.4,1.5-2.5,3-2.5c1.7,0,3,1.3,3,3
			c0,0.4-0.1,0.7-0.2,1c0.1,0,0.1,0,0.2,0c1.1,0,2,0.9,2,2S114.3,91.1,113.2,91.1z M98.2,91.1c-1.1,0-2-0.9-2-2c0-0.1,0-0.1,0-0.2
			c-0.3,0.1-0.7,0.2-1,0.2c-0.8,0-1.5-0.3-2-0.8c-0.1,1.6-1.4,2.8-3,2.8c-1,0-1.8-0.5-2.4-1.2c-0.4,0.7-1.2,1.2-2.1,1.2
			c-0.8,0-1.5-0.4-2-1c-0.5,0.6-1.2,1-2,1c-0.6,0-1.1-0.2-1.5-0.5c-0.6,0.3-1.3,0.5-2,0.5c-2.2,0-4-1.8-4-4s1.8-4,4-4
			c1.9,0,3.4,1.3,3.9,3c0.7,0.1,1.2,0.5,1.6,1c0.2-0.2,0.4-0.5,0.7-0.6c-0.1-0.3-0.2-0.6-0.2-0.9c0-1.4,1.1-2.5,2.5-2.5
			c1.3,0,2.3,1,2.5,2.2c0.3-0.1,0.7-0.2,1-0.2c0.8,0,1.5,0.3,2,0.8c0.1-1.6,1.4-2.8,3-2.8c1.7,0,3,1.3,3,3c0,0.4-0.1,0.7-0.2,1
			c0.1,0,0.1,0,0.2,0c1.1,0,2,0.9,2,2S99.3,91.1,98.2,91.1z M72.7,88.1c-0.2,0-0.4,0-0.6-0.1c-0.4,1.8-2,3.1-3.9,3.1
			c-1.4,0-2.7-0.8-3.4-1.9c-0.6,1.1-1.8,1.9-3.1,1.9c-1.9,0-3.5-1.6-3.5-3.5l0,0c-0.1,0-0.1,0.1-0.2,0.1c0.1,0.3,0.2,0.6,0.2,0.9
			c0,1.4-1.1,2.5-2.5,2.5c-1.3,0-2.4-1-2.5-2.3c-0.3,0.2-0.6,0.3-1,0.3c-0.2,0-0.3,0-0.5-0.1c-0.7,1.2-2,2.1-3.5,2.1
			c-1.3,0-2.4-0.6-3.2-1.6c-0.4,0.9-1.3,1.6-2.3,1.6c-1.4,0-2.5-1.1-2.5-2.5s1.1-2.5,2.5-2.5c0.6,0,1.1,0.2,1.5,0.5
			c0.2-2,1.9-3.5,4-3.5c1.5,0,2.8,0.8,3.5,2.1c0.2,0,0.3-0.1,0.5-0.1c0.9,0,1.7,0.7,1.9,1.5c0.1-0.1,0.1-0.1,0.2-0.2
			c-0.1-0.3-0.2-0.6-0.2-0.9c0-1.4,1.1-2.5,2.5-2.5c1.2,0,2.3,0.9,2.5,2.1c0.6-0.7,1.5-1.1,2.5-1.1c1.2,0,2.2,0.6,2.8,1.4
			c0.6-1.4,2-2.4,3.7-2.4c1.6,0,3,0.9,3.6,2.3c0.2-0.2,0.6-0.3,0.9-0.3c0.8,0,1.5,0.7,1.5,1.5C74.2,87.3,73.5,88.1,72.7,88.1z"/>
		<path fill="#F1CE88" d="M50.8,93.1c2.1,1.2,4.9,1.2,7,0l0.3-0.1l0.3,0.1c2.1,1.2,4.9,1.2,7,0l0.3-0.1l0.3,0.1c2.1,1.2,4.8,1.2,7,0
			l0.2-0.1l0.2,0.1c2.1,1.2,4.8,1.2,7,0l0.3-0.1l0.3,0.1c2.1,1.2,4.9,1.2,7,0l0.3-0.1l0.3,0.1c2.1,1.2,4.9,1.2,7,0l0.3-0.1l0.3,0.1
			c2.1,1.2,4.9,1.2,7,0l0.3-0.1l0.3,0.1c2.1,1.2,4.9,1.2,7,0l0.3-0.1l0.3,0.1c2.1,1.2,4.9,1.2,7,0l0.3-0.1l0.3,0.1
			c2.1,1.2,4.9,1.2,7,0l0.3-0.1l0.3,0.1c1.1,0.6,2.3,0.9,3.5,0.9c3.9,0,7-3.1,7-7s-3.1-7-7-7c-1.2,0-2.4,0.3-3.5,0.9l-0.3,0.1
			l-0.3-0.1c-2.1-1.2-4.9-1.2-7,0l-0.3,0.1l-0.3-0.1c-2.1-1.2-4.9-1.2-7,0l-0.3,0.1l-0.3-0.1c-2.1-1.2-4.9-1.2-7,0l-0.3,0.1
			l-0.3-0.1c-2.1-1.2-4.9-1.2-7,0l-0.3,0.1l-0.3-0.1c-2.1-1.2-4.9-1.2-7,0l-0.3,0.1L88,80.8c-2.1-1.2-4.9-1.2-7,0l-0.3,0.1l-0.3-0.1
			c-2.1-1.2-4.8-1.2-7,0l-0.2,0.1h-0.5c-2.1-1.2-4.8-1.2-7,0l-0.3,0.1l-0.3-0.1c-2.1-1.2-4.9-1.2-7,0l-0.3,0.1l-0.1-0.1
			c-2.1-1.2-4.9-1.2-7,0l-0.3,0.1l-0.3-0.1c-1.1-0.6-2.3-0.9-3.5-0.9c-3.9,0-7,3.1-7,7s3.1,7,7,7c1.2,0,2.4-0.3,3.5-0.9l0.3-0.1
			H50.8z"/>
		<g>
			<path fill="#82C5D4" d="M136.2,96.7L136.2,96.7c-0.2-1.9-2.2-3.2-4-2.4c-1,0.4-2,0.7-3.2,0.7c-1.3,0-2.5-0.3-3.6-0.9
				c-2.4,1.2-5.2,1.2-7.5-0.1c-2.3,1.2-5.1,1.3-7.5,0.1c-2.4,1.2-5.2,1.2-7.6,0c-2.3,1.2-5.2,1.2-7.5,0c-2.4,1.3-5.2,1.2-7.6,0.1
				c-2.3,1.2-5.1,1.2-7.4-0.1c-2.3,1.2-5.2,1.2-7.5,0c-2.3,1.2-5.2,1.2-7.5,0c-2.3,1.2-5.1,1.2-7.5,0c-2.3,1.2-5.2,1.2-7.5,0
				c-1.2,0.6-2.4,0.9-3.7,0.9c-1.2,0-2.3-0.3-3.3-0.7c-1.9-0.9-4.2,0.3-4.3,2.4l0,0l0,0c0,5.2,5.4,9.5,12,9.5h29.6H82h2h1.1H124
				c6.1,0,11.2-3.6,11.9-8.3c0.1-0.3,0.1-0.5,0.1-0.8v-0.1C136.2,96.9,136.2,96.8,136.2,96.7L136.2,96.7z M52.2,102.2
				c-0.6,0-1-0.3-1-0.8c0-0.4,0.4-0.8,1-0.8s1,0.4,1,0.8C53.2,101.9,52.8,102.2,52.2,102.2z M58.2,99.2c-0.6,0-1-0.3-1-0.8
				c0-0.4,0.4-0.8,1-0.8s1,0.3,1,0.8C59.2,98.7,58.8,99.2,58.2,99.2z M64.2,103.8c-0.6,0-1-0.4-1-0.8s0.4-0.8,1-0.8s1,0.4,1,0.8
				S64.8,103.8,64.2,103.8z M66.2,97.6c-0.6,0-1-0.4-1-0.8s0.4-0.8,1-0.8s1,0.4,1,0.8C67.2,97.2,66.8,97.6,66.2,97.6z M73.2,103.1
				c-0.6,0-1-0.4-1-0.8s0.4-0.8,1-0.8s1,0.4,1,0.8S73.8,103.1,73.2,103.1z M79.2,100.7c-0.6,0-1-0.4-1-0.8s0.4-0.8,1-0.8
				s1,0.4,1,0.8S79.8,100.7,79.2,100.7z M84.2,97.6c-0.6,0-1-0.4-1-0.8s0.4-0.8,1-0.8s1,0.4,1,0.8C85.2,97.2,84.8,97.6,84.2,97.6z
				 M87.2,103.8c-0.6,0-1-0.4-1-0.8s0.4-0.8,1-0.8s1,0.4,1,0.8S87.8,103.8,87.2,103.8z M92.2,97.6c0-0.4,0.4-0.8,1-0.8s1,0.4,1,0.8
				s-0.4,0.8-1,0.8S92.2,97.9,92.2,97.6z M94.2,103.8c-0.6,0-1-0.4-1-0.8s0.4-0.8,1-0.8s1,0.4,1,0.8S94.8,103.8,94.2,103.8z
				 M103.2,102.2c-0.6,0-1-0.3-1-0.8c0-0.4,0.4-0.8,1-0.8s1,0.4,1,0.8C104.2,101.9,103.8,102.2,103.2,102.2z M108.2,98.3
				c-0.6,0-1-0.3-1-0.8c0-0.4,0.4-0.8,1-0.8s1,0.4,1,0.8S108.8,98.3,108.2,98.3z M113.2,103.8c-0.6,0-1-0.4-1-0.8s0.4-0.8,1-0.8
				s1,0.4,1,0.8S113.8,103.8,113.2,103.8z M117.2,99.9c-0.6,0-1-0.4-1-0.8s0.4-0.8,1-0.8s1,0.4,1,0.8S117.8,99.9,117.2,99.9z
				 M125.2,98.3c-0.6,0-1-0.3-1-0.8c0-0.4,0.4-0.8,1-0.8l0,0c0,0.1,0,0.2,0,0.4c0,0.4,0.1,0.8,0.2,1.2
				C125.3,98.3,125.3,98.3,125.2,98.3z"/>
		</g>
		<g>
			<path fill="#ABDDE8" d="M39.2,77.8c0,1.9,2.2,3,3.8,2.1c1.1-0.6,2.4-0.9,3.7-0.9c1.3,0,2.6,0.3,3.7,0.9c2.3-1.2,5.2-1.2,7.5,0
				c2.3-1.2,5.2-1.2,7.5,0c2.3-1.2,5.2-1.2,7.5,0c2.3-1.2,5.1-1.2,7.3,0c2.4-1.2,5.2-1.2,7.6,0.1c2.3-1.2,5.2-1.2,7.5,0
				c2.3-1.2,5.2-1.2,7.5,0c2.3-1.2,5.2-1.2,7.5,0c2.4-1.3,5.2-1.2,7.6-0.1c2.3-1.2,5.1-1.2,7.4,0.1c1.2-0.6,2.4-0.9,3.7-0.9
				c1,0,2.1,0.2,3,0.6c1.8,0.7,3.9-0.3,4.2-2.2c0-0.1,0-0.3,0-0.5l0,0c0-5.6-5.4-10.1-12-10.1h-39h-1h-2h-0.7H51.2
				c-6.6,0-12,4.5-12,10.1C39.2,76.9,39.2,77.6,39.2,77.8L39.2,77.8z M125.2,75.2c0.6,0,1,0.4,1,0.8s-0.4,0.8-1,0.8s-1-0.4-1-0.8
				S124.6,75.2,125.2,75.2z M117.2,73.7c0.6,0,1,0.4,1,0.8c0,0.5-0.4,0.8-1,0.8s-1-0.4-1-0.8C116.2,73.9,116.6,73.7,117.2,73.7z
				 M113.2,69.4c0.6,0,1,0.4,1,0.8s-0.4,0.8-1,0.8s-1-0.4-1-0.8S112.6,69.4,113.2,69.4z M108.2,75.2c0.6,0,1,0.4,1,0.8
				s-0.4,0.8-1,0.8s-1-0.4-1-0.8S107.6,75.2,108.2,75.2z M103.2,71.1c0.6,0,1,0.4,1,0.8c0,0.5-0.4,0.8-1,0.8s-1-0.4-1-0.8
				S102.6,71.1,103.2,71.1z M94.2,69.4c0.6,0,1,0.4,1,0.8s-0.4,0.8-1,0.8s-1-0.4-1-0.8S93.6,69.4,94.2,69.4z M93.2,75.2
				c0.6,0,1,0.4,1,0.8s-0.4,0.8-1,0.8s-1-0.4-1-0.8S92.6,75.2,93.2,75.2z M87.2,69.4c0.6,0,1,0.4,1,0.8s-0.4,0.8-1,0.8s-1-0.4-1-0.8
				S86.6,69.4,87.2,69.4z M84.2,76.2c0.6,0,1,0.4,1,0.8s-0.4,0.8-1,0.8s-1-0.4-1-0.8S83.6,76.2,84.2,76.2z M79.2,72.7
				c0.6,0,1,0.4,1,0.8c0,0.5-0.4,0.8-1,0.8s-1-0.4-1-0.8C78.2,73.2,78.6,72.7,79.2,72.7z M73.2,70.2c0.6,0,1,0.4,1,0.8
				s-0.4,0.8-1,0.8s-1-0.4-1-0.8S72.6,70.2,73.2,70.2z M66.2,76.2c0.6,0,1,0.4,1,0.8s-0.4,0.8-1,0.8s-1-0.4-1-0.8
				S65.6,76.2,66.2,76.2z M64.2,69.4c0.6,0,1,0.4,1,0.8s-0.4,0.8-1,0.8s-1-0.4-1-0.8S63.6,69.4,64.2,69.4z M58.2,74.4
				c0.6,0,1,0.4,1,0.8s-0.4,0.8-1,0.8s-1-0.4-1-0.8S57.6,74.4,58.2,74.4z M52.2,71.1c0.6,0,1,0.4,1,0.8c0,0.5-0.4,0.8-1,0.8
				s-1-0.4-1-0.8S51.6,71.1,52.2,71.1z"/>
		</g>
	</g>
</g>
</svg>
