<?xml version="1.0" encoding="utf-8"?>
<!-- Generator: Adobe Illustrator 18.0.0, SVG Export Plug-In . SVG Version: 6.00 Build 0)  -->
<!DOCTYPE svg PUBLIC "-//W3C//DTD SVG 1.1//EN" "http://www.w3.org/Graphics/SVG/1.1/DTD/svg11.dtd">
<svg version="1.1" id="Layer_1" xmlns="http://www.w3.org/2000/svg" xmlns:xlink="http://www.w3.org/1999/xlink" x="0px" y="0px"
	 viewBox="0 0 176 176" enable-background="new 0 0 176 176" xml:space="preserve">
<g>
	<circle fill="#FFFFFF" cx="88" cy="88" r="88"/>
	<g>
		<path opacity="0.1" enable-background="new    " d="M91.1,135.7h-7.7c-0.4,0-0.8-0.3-0.8-0.8v-0.2c0-0.4,0.3-0.8,0.8-0.8h7.7
			c0.4,0,0.8,0.3,0.8,0.8v0.2C91.9,135.4,91.5,135.7,91.1,135.7z"/>
		<path fill="#ABDDE8" d="M108.5,81.8c-3.2,8.7-11.5,14.8-21.3,14.8s-18.1-6.2-21.3-14.8l15.6,45.6l0,0c0.9,4.3,1.2,7.4,5.8,7.4
			c4.5,0,4.8-3.2,5.8-7.4l0,0L108.5,81.8z"/>
		<path fill="#82C5D4" d="M114.6,84.5c1.5,0,6.3-1.3,6.3-2.8s-4.7-2.8-6.3-2.8c-0.3,0-0.6,0.1-0.9,0.2c-0.1-0.1-0.1-0.3-0.2-0.4
			c0.3-0.1,0.6-0.3,0.8-0.6c1.1-1.1,3.6-5.3,2.5-6.4c-0.6-0.6-1.9-0.2-3.3,0.5c-0.6-1.2-1.4-2.4-1.9-3c-0.1-0.1-0.2-0.1-0.3-0.2
			c0.1-0.2,0.2-0.5,0.2-0.7c0.1,0,0.2,0.1,0.4,0.1c1.5,0,6.3-1.3,6.3-2.8s-4.7-2.8-6.3-2.8c-0.5,0-1,0.2-1.4,0.4
			c0-0.2-0.1-0.3-0.1-0.5c0.5-0.1,0.9-0.4,1.2-0.7c1.1-1.1,3.6-5.3,2.5-6.4c-1.1-1.1-5.1,1.2-6.3,2.4c0.1-0.6,0.1-1.1-0.2-1.4
			c-0.2-0.2-0.5-0.3-0.9-0.3c-0.4-1.8-1.2-4.3-2.3-4.7c0.2-0.7,0.2-1.3-0.2-1.6c-1-1-4.5,0.9-6,2.1c0-0.4,0-0.8-0.3-1
			c-0.2-0.2-0.6-0.3-1.1-0.3c-0.4-2-1.4-4.9-2.6-4.9c-0.6,0-1.1,0.6-1.5,1.5c-0.9,0.6-1.7,2.8-2.1,4.5c-0.4-2-1.4-5-2.6-5
			c-0.8,0-1.6,1.4-2.1,2.9c-0.7-0.2-1.3-0.2-1.7,0.1c-0.2,0.2-0.3,0.6-0.3,1.1c-0.2,0-0.3,0-0.4,0.1c-0.5-1-1-1.8-1.7-1.8
			c-0.6,0-1.2,0.8-1.7,1.8c-0.4-0.2-0.8-0.3-1.2-0.3c-0.5-1.1-1.1-2-1.8-2c-1.2,0-2.2,2.9-2.6,4.9c-1.2-0.5-2.3-0.7-2.8-0.2
			c-0.1,0.1-0.2,0.3-0.2,0.5c-0.1,0-0.1-0.1-0.2-0.1c-0.4-0.8-0.9-1.3-1.4-1.3c-0.3,0-0.5,0.1-0.8,0.4c-0.9-0.3-1.6-0.3-2,0.1
			c-0.5,0.5-0.2,1.9,0.4,3.2C67.2,57.4,67,58.4,67,59c0,0.6,0.2,1.1,0.5,1.6c-0.2,0-0.4,0.1-0.6,0.1l0,0c-0.1-0.5-0.4-1-0.7-1.4
			c-1.1-1.1-5.3-3.6-6.4-2.5c-0.8,0.8,0.2,3,1.2,4.7c-0.9,0.8-1.5,1.8-1.8,2.9c-1.7,0.5-3.6,1.3-3.6,2.3c0,1.2,2.7,2.2,4.7,2.6
			c0.1,0.1,0.2,0.3,0.3,0.4c0,0.1,0,0.2,0,0.3c0,0.7,0.1,1.3,0.3,1.9c-1.8,0.5-3.7,1.4-3.7,2.3c0,0.7,1,1.4,2.2,1.8
			c0,0.3,0.1,0.5,0.3,0.7c0.3,0.3,0.9,0.3,1.7,0.1c0,0.2-0.1,0.5-0.1,0.8c0,0.1,0,0.2,0,0.3c-1.3-0.6-2.6-0.9-3.2-0.4
			c-1.1,1.1,1.4,5.3,2.5,6.4c0.2,0.2,0.5,0.4,0.8,0.6c-0.1,0.1-0.1,0.2-0.2,0.4c-0.3-0.1-0.6-0.2-0.9-0.2c-1.5,0-6.3,1.3-6.3,2.8
			s4.7,2.8,6.3,2.8c0.3,0,0.6-0.1,0.9-0.2c0.1,0.1,0.1,0.3,0.2,0.4c-0.3,0.1-0.6,0.3-0.8,0.6c-1.1,1.1-3.6,5.3-2.5,6.4
			c1.1,1.1,5.3-1.4,6.4-2.5c0.5-0.5,0.8-1.3,0.8-2c0.3,0,0.5,0.1,0.8,0.1c0.1,0,0.3,0,0.4,0c-0.7,0.5-1.2,1.3-1.2,2.3
			c0,1.5,1.3,6.3,2.8,6.3s2.8-4.7,2.8-6.3c0-1.4-1.1-2.6-2.5-2.8c0.1,0,0.1-0.1,0.2-0.1c1.2-0.1,2.3-0.6,3.1-1.4
			c-1.1,1.1-1.1,2.8,0,3.9c1.1,1.1,5.3,3.6,6.4,2.5s-1.4-5.3-2.5-6.4c-1.1-1.1-2.8-1.1-3.9,0c0.9-0.9,1.4-2.1,1.5-3.5
			c0.1,1.5,1.3,2.7,2.8,2.7c1.1,0,3.7-0.6,5.2-1.5l0.6,0.2c-0.8,0.4-1.4,0.9-1.4,1.5c0,1.2,2.9,2.2,4.9,2.6
			c-0.9,2.4-1.6,6.5-0.8,7.4c1.1,1.1,5.3-1.4,6.4-2.5c0.2-0.2,0.6-0.4,1-0.6c-0.1,0.3-0.2,0.6-0.2,1c0,1.5,1.3,6.3,2.8,6.3
			c1.2,0,2.2-2.8,2.6-4.7c0.2,0,0.4,0.1,0.6,0.1c2.5,0,4.6-2.1,4.6-4.6c0-0.8-0.2-1.5-0.6-2.2c0.2,0,0.4,0.1,0.6,0.1
			c0.5,0,1.2-0.1,2.1-0.3c0.5,1.6,1.3,3.1,2.2,3.1c1.5,0,2.8-4.7,2.8-6.3c0-1.3-0.8-2.3-2-2.7c0.3,0.1,0.6,0.1,1,0.1
			c0.3,0,0.7,0,1-0.1c-0.1,0.8,0.1,1.7,0.8,2.4c1.1,1.1,5.3,3.6,6.4,2.5c1.1-1.1-1.4-5.3-2.5-6.4c-0.3-0.3-0.7-0.6-1.2-0.7
			c0.1-0.1,0.2-0.3,0.3-0.4C113.7,84.3,114.2,84.5,114.6,84.5z M89.6,90.2L89.6,90.2C89.6,90.1,89.6,90.1,89.6,90.2L89.6,90.2
			C89.6,90.1,89.6,90.1,89.6,90.2z M101.3,56.8c0,0.1,0,0.2,0,0.3c-0.1,0-0.2,0.1-0.3,0.1C101,57.1,101.1,57,101.3,56.8z
			 M106.7,86.8c-0.3,0-0.6,0.1-0.9,0.2l0.1-0.3C106.2,86.7,106.5,86.8,106.7,86.8c0.1,0,0.1,0,0.2,0c0.1,0,0.1,0,0.2,0.1
			C107,86.8,106.9,86.8,106.7,86.8z"/>
		<g>
			<circle fill="#FFFFFF" cx="90.6" cy="50.4" r="2.6"/>
			<path fill="#F1CE88" d="M92.1,46.3c0,0.8-0.7,1.5-1.5,1.5s-1.5-0.7-1.5-1.5s0.7-3.3,1.5-3.3C91.4,43.1,92.1,45.5,92.1,46.3z"/>
			<path fill="#F1CE88" d="M89.2,54.5c0-0.8,0.7-1.5,1.5-1.5s1.5,0.7,1.5,1.5s-0.7,3.3-1.5,3.3C89.8,57.8,89.2,55.3,89.2,54.5z"/>
			<path fill="#F1CE88" d="M94.7,51.9c-0.8,0-1.5-0.7-1.5-1.5s0.7-1.5,1.5-1.5s3.3,0.7,3.3,1.5S95.5,51.9,94.7,51.9z"/>
			<path fill="#F1CE88" d="M86.5,49c0.8,0,1.5,0.7,1.5,1.5S87.3,52,86.5,52s-3.3-0.7-3.3-1.5S85.7,49,86.5,49z"/>
			<path fill="#F1CE88" d="M86.7,52.3c0.6-0.6,1.5-0.6,2.1,0s0.6,1.5,0,2.1s-2.8,1.9-3.3,1.3C84.8,55.1,86.1,52.9,86.7,52.3z"/>
			<path fill="#F1CE88" d="M94.5,48.6c-0.6,0.6-1.5,0.6-2.1,0s-0.6-1.5,0-2.1s2.8-1.9,3.3-1.3C96.4,45.8,95.1,48,94.5,48.6z"/>
			<path fill="#F1CE88" d="M92.5,54.4c-0.6-0.6-0.6-1.5,0-2.1s1.5-0.6,2.1,0s1.9,2.8,1.3,3.3C95.2,56.2,93,54.9,92.5,54.4z"/>
			<path fill="#F1CE88" d="M88.7,46.5c0.6,0.6,0.6,1.5,0,2.1s-1.5,0.6-2.1,0s-1.9-2.8-1.3-3.3C86,44.7,88.2,46,88.7,46.5z"/>
			<circle fill="#FFFFFF" cx="90.6" cy="50.4" r="2.6"/>
		</g>
		<g>
			<g>
				<circle fill="#FFFFFF" cx="74.4" cy="65.1" r="5.1"/>
				<path fill="#F1CE88" d="M77.2,57.2c0,1.5-1.3,2.8-2.8,2.8s-2.8-1.3-2.8-2.8s1.3-6.3,2.8-6.3C75.9,50.9,77.2,55.7,77.2,57.2z"/>
				<path fill="#F1CE88" d="M71.6,72.9c0-1.5,1.3-2.8,2.8-2.8s2.8,1.3,2.8,2.8s-1.3,6.3-2.8,6.3C72.8,79.2,71.6,74.5,71.6,72.9z"/>
				<path fill="#F1CE88" d="M82.2,67.8c-1.5,0-2.8-1.3-2.8-2.8s1.3-2.8,2.8-2.8s6.3,1.3,6.3,2.8C88.5,66.6,83.7,67.8,82.2,67.8z"/>
				<path fill="#F1CE88" d="M66.5,62.3c1.5,0,2.8,1.3,2.8,2.8s-1.3,2.8-2.8,2.8s-6.3-1.3-6.3-2.8C60.2,63.5,64.9,62.3,66.5,62.3z"/>
				<path fill="#F1CE88" d="M66.8,68.6c1.1-1.1,2.9-1.1,4,0s1.1,2.9,0,4s-5.3,3.6-6.4,2.5S65.7,69.7,66.8,68.6z"/>
				<path fill="#F1CE88" d="M81.9,61.5c-1.1,1.1-2.9,1.1-4,0s-1.1-2.9,0-4s5.3-3.6,6.4-2.5C85.4,56.1,83,60.4,81.9,61.5z"/>
				<path fill="#F1CE88" d="M77.9,72.6c-1.1-1.1-1.1-2.9,0-4s2.9-1.1,4,0s3.6,5.3,2.5,6.4C83.2,76.2,79,73.7,77.9,72.6z"/>
				<path fill="#F1CE88" d="M70.7,57.6c1.1,1.1,1.1,2.9,0,4s-2.9,1.1-4,0s-3.6-5.3-2.5-6.4C65.4,54,69.7,56.5,70.7,57.6z"/>
				<circle fill="#FFFFFF" cx="74.4" cy="65.1" r="5.1"/>
			</g>
			<g>
				<circle fill="#FFFFFF" cx="95.5" cy="65.6" r="5.5"/>
				<path fill="#FFFFFF" d="M98.5,57.1c0,1.7-1.3,3-3,3s-3-1.3-3-3s1.3-6.8,3-6.8C97.1,50.3,98.5,55.4,98.5,57.1z"/>
				<path fill="#FFFFFF" d="M92.5,74.1c0-1.7,1.3-3,3-3s3,1.3,3,3s-1.3,6.8-3,6.8C93.8,80.8,92.5,75.7,92.5,74.1z"/>
				<path fill="#FFFFFF" d="M103.9,68.6c-1.7,0-3-1.3-3-3s1.3-3,3-3s6.8,1.3,6.8,3C110.7,67.2,105.6,68.6,103.9,68.6z"/>
				<path fill="#FFFFFF" d="M87,62.5c1.7,0,3,1.3,3,3s-1.3,3-3,3s-6.8-1.3-6.8-3C80.2,63.9,85.3,62.5,87,62.5z"/>
				<path fill="#FFFFFF" d="M87.3,69.4c1.2-1.2,3.1-1.2,4.3,0c1.2,1.2,1.2,3.1,0,4.3s-5.7,3.8-6.9,2.7
					C83.5,75.2,86.2,70.6,87.3,69.4z"/>
				<path fill="#FFFFFF" d="M103.6,61.7c-1.2,1.2-3.1,1.2-4.3,0c-1.2-1.2-1.2-3.1,0-4.3s5.7-3.8,6.9-2.7
					C107.4,55.9,104.8,60.5,103.6,61.7z"/>
				<path fill="#FFFFFF" d="M99.3,73.7c-1.2-1.2-1.2-3.1,0-4.3s3.1-1.2,4.3,0c1.2,1.2,3.8,5.7,2.7,6.9
					C105.1,77.6,100.5,74.9,99.3,73.7z"/>
				<path fill="#FFFFFF" d="M91.6,57.5c1.2,1.2,1.2,3.1,0,4.3s-3.1,1.2-4.3,0c-1.2-1.2-3.8-5.7-2.7-6.9
					C85.8,53.6,90.4,56.3,91.6,57.5z"/>
				<circle fill="#F1CE88" cx="95.5" cy="65.6" r="5.5"/>
			</g>
			<g>
				<circle fill="#FFFFFF" cx="100.9" cy="87" r="5.1"/>
				<path fill="#F1CE88" d="M103.7,79.2c0,1.5-1.3,2.8-2.8,2.8s-2.8-1.3-2.8-2.8s1.3-6.3,2.8-6.3C102.4,72.9,103.7,77.6,103.7,79.2z
					"/>
				<path fill="#F1CE88" d="M98.1,94.9c0-1.5,1.3-2.8,2.8-2.8s2.8,1.3,2.8,2.8s-1.3,6.3-2.8,6.3C99.4,101.2,98.1,96.5,98.1,94.9z"/>
				<path fill="#F1CE88" d="M108.7,89.8c-1.5,0-2.8-1.3-2.8-2.8s1.3-2.8,2.8-2.8s6.3,1.3,6.3,2.8C115,88.6,110.3,89.8,108.7,89.8z"
					/>
				<path fill="#F1CE88" d="M93,84.2c1.5,0,2.8,1.3,2.8,2.8s-1.3,2.8-2.8,2.8s-6.3-1.3-6.3-2.8S91.5,84.2,93,84.2z"/>
				<path fill="#F1CE88" d="M93.3,90.6c1.1-1.1,2.9-1.1,4,0s1.1,2.9,0,4s-5.3,3.6-6.4,2.5S92.2,91.7,93.3,90.6z"/>
				<path fill="#F1CE88" d="M108.4,83.4c-1.1,1.1-2.9,1.1-4,0c-1.1-1.1-1.1-2.9,0-4c1.1-1.1,5.3-3.6,6.4-2.5
					C112,78.1,109.5,82.3,108.4,83.4z"/>
				<path fill="#F1CE88" d="M104.5,94.6c-1.1-1.1-1.1-2.9,0-4c1.1-1.1,2.9-1.1,4,0s3.6,5.3,2.5,6.4S105.6,95.7,104.5,94.6z"/>
				<path fill="#F1CE88" d="M97.3,79.5c1.1,1.1,1.1,2.9,0,4s-2.9,1.1-4,0s-3.6-5.3-2.5-6.4S96.2,78.4,97.3,79.5z"/>
				<circle fill="#FFFFFF" cx="100.9" cy="87" r="5.1"/>
			</g>
			<g>
				<circle fill="#FFFFFF" cx="77.8" cy="88.7" r="5.7"/>
				<path fill="#FFFFFF" d="M80.9,79.9c0,1.7-1.4,3.1-3.1,3.1s-3.1-1.4-3.1-3.1c0-1.7,1.4-7,3.1-7S80.9,78.2,80.9,79.9z"/>
				<path fill="#FFFFFF" d="M74.7,97.4c0-1.7,1.4-3.1,3.1-3.1s3.1,1.4,3.1,3.1s-1.4,7-3.1,7S74.7,99.2,74.7,97.4z"/>
				<path fill="#FFFFFF" d="M86.6,91.7c-1.7,0-3.1-1.4-3.1-3.1c0-1.7,1.4-3.1,3.1-3.1s7,1.4,7,3.1C93.6,90.3,88.3,91.7,86.6,91.7z"
					/>
				<path fill="#FFFFFF" d="M69,85.5c1.7,0,3.1,1.4,3.1,3.1c0,1.7-1.4,3.1-3.1,3.1s-7-1.4-7-3.1S67.3,85.5,69,85.5z"/>
				<path fill="#FFFFFF" d="M69.4,92.6c1.2-1.2,3.2-1.2,4.4,0c1.2,1.2,1.2,3.2,0,4.4s-5.9,4-7.2,2.8S68.2,93.8,69.4,92.6z"/>
				<path fill="#FFFFFF" d="M86.2,84.6c-1.2,1.2-3.2,1.2-4.4,0c-1.2-1.2-1.2-3.2,0-4.4s5.9-4,7.2-2.8S87.4,83.4,86.2,84.6z"/>
				<path fill="#FFFFFF" d="M81.8,97.1c-1.2-1.2-1.2-3.2,0-4.4s3.2-1.2,4.4,0c1.2,1.2,4,5.9,2.8,7.2C87.7,101.1,83,98.3,81.8,97.1z"
					/>
				<path fill="#FFFFFF" d="M73.8,80.3c1.2,1.2,1.2,3.2,0,4.4s-3.2,1.2-4.4,0s-4-5.9-2.8-7.2S72.6,79,73.8,80.3z"/>
				<circle fill="#F1CE88" cx="77.8" cy="88.7" r="5.7"/>
			</g>
		</g>
	</g>
</g>
</svg>
