<?xml version="1.0" encoding="utf-8"?>
<!-- Generator: Adobe Illustrator 18.0.0, SVG Export Plug-In . SVG Version: 6.00 Build 0)  -->
<!DOCTYPE svg PUBLIC "-//W3C//DTD SVG 1.1//EN" "http://www.w3.org/Graphics/SVG/1.1/DTD/svg11.dtd">
<svg version="1.1" id="Layer_1" xmlns="http://www.w3.org/2000/svg" xmlns:xlink="http://www.w3.org/1999/xlink" x="0px" y="0px"
	 viewBox="0 0 176 176" enable-background="new 0 0 176 176" xml:space="preserve">
<g>
	<circle fill="#FFFFFF" cx="88" cy="88" r="88"/>
	<g>
		<path opacity="0.1" enable-background="new    " d="M74.9,104H62.1c-0.6,0-1.1-0.5-1.1-1.1v-0.9c0-0.6,0.5-1.1,1.1-1.1h12.9
			c0.6,0,1.1,0.5,1.1,1.1v0.9C76,103.5,75.5,104,74.9,104z"/>
		<path opacity="0.1" enable-background="new    " d="M114.9,104h-12.9c-0.6,0-1.1-0.5-1.1-1.1v-0.9c0-0.6,0.5-1.1,1.1-1.1h12.9
			c0.6,0,1.1,0.5,1.1,1.1v0.9C116,103.5,115.5,104,114.9,104z"/>
		<g>
			<path fill="#82C5D4" d="M105.4,73h5.3c1.3,0,2.4,1.1,2.4,2.4v25.3c0,1.3-1.1,2.4-2.4,2.4h-5.3c-1.3,0-2.4-1.1-2.4-2.4V75.4
				C103,74.1,104.1,73,105.4,73z"/>
			<path fill="#ABDDE8" d="M115.2,76h3.6c1.2,0,2.2,1,2.2,2.2v19.6c0,1.2-1,2.2-2.2,2.2h-3.6c-1.2,0-2.2-1-2.2-2.2V78.2
				C113,77,114,76,115.2,76z"/>
			<path fill="#F1CE88" d="M122.9,81h4.3c1,0,1.9,0.8,1.9,1.9v10.3c0,1-0.8,1.9-1.9,1.9h-4.3c-1,0-1.9-0.8-1.9-1.9V82.9
				C121,81.8,121.8,81,122.9,81z"/>
			<path fill="#82C5D4" d="M71.6,103h-5.3c-1.3,0-2.4-1.1-2.4-2.4V75.4c0-1.3,1.1-2.4,2.4-2.4h5.3c1.3,0,2.4,1.1,2.4,2.4v25.3
				C74,101.9,72.9,103,71.6,103z"/>
			<path fill="#ABDDE8" d="M61.8,100h-3.6c-1.2,0-2.2-1-2.2-2.2V78.2c0-1.2,1-2.2,2.2-2.2h3.6c1.2,0,2.2,1,2.2,2.2v19.6
				C64,99,63,100,61.8,100z"/>
			<path fill="#F1CE88" d="M54.1,95h-4.3c-1,0-1.9-0.8-1.9-1.9V82.9c0-1,0.8-1.9,1.9-1.9h4.3c1,0,1.9,0.8,1.9,1.9v10.3
				C56,94.2,55.2,95,54.1,95z"/>
			<rect x="74" y="84" fill="#ABDDE8" width="29" height="8"/>
			<circle fill="#82C5D4" cx="76.5" cy="85.5" r="1.5"/>
			<circle fill="#82C5D4" cx="76.5" cy="90.5" r="1.5"/>
			<circle fill="#82C5D4" cx="80" cy="88" r="1.5"/>
			<circle fill="#82C5D4" cx="83.5" cy="85.5" r="1.5"/>
			<circle fill="#82C5D4" cx="83.5" cy="90.5" r="1.5"/>
			<circle fill="#82C5D4" cx="87" cy="88" r="1.5"/>
			<circle fill="#82C5D4" cx="90.5" cy="85.5" r="1.5"/>
			<circle fill="#82C5D4" cx="90.5" cy="90.5" r="1.5"/>
			<circle fill="#82C5D4" cx="94" cy="88" r="1.5"/>
			<circle fill="#82C5D4" cx="97.5" cy="85.5" r="1.5"/>
			<circle fill="#82C5D4" cx="97.5" cy="90.5" r="1.5"/>
			<circle fill="#82C5D4" cx="101" cy="88" r="1.5"/>
		</g>
	</g>
</g>
</svg>
