<?xml version="1.0" encoding="utf-8"?>
<!-- Generator: Adobe Illustrator 18.0.0, SVG Export Plug-In . SVG Version: 6.00 Build 0)  -->
<!DOCTYPE svg PUBLIC "-//W3C//DTD SVG 1.1//EN" "http://www.w3.org/Graphics/SVG/1.1/DTD/svg11.dtd">
<svg version="1.1" id="Layer_1" xmlns="http://www.w3.org/2000/svg" xmlns:xlink="http://www.w3.org/1999/xlink" x="0px" y="0px"
	 viewBox="0 0 176 176" enable-background="new 0 0 176 176" xml:space="preserve">
<g>
	<g>
		<circle fill="#FFFFFF" cx="88" cy="88" r="88"/>
	</g>
	<circle fill="#FFFFFF" cx="88" cy="88" r="88"/>
	<g>
		<path opacity="0.1" enable-background="new    " d="M120.5,124h-64c-0.8,0-1.5-0.7-1.5-1.5l0,0c0-0.8,0.7-1.5,1.5-1.5h64
			c0.8,0,1.5,0.7,1.5,1.5l0,0C122,123.3,121.3,124,120.5,124z"/>
		<polygon fill="#F1CE88" points="124,70 88,56.9 53,69.9 53,68 88,55 124,68.1 		"/>
		<rect x="59" y="75" fill="#82C5D4" width="59" height="48"/>
		<rect x="118" y="96" fill="#ABDDE8" width="3" height="27"/>
		<rect x="53" y="75" fill="#F1CE88" width="71" height="1"/>
		<polygon fill="#ABDDE8" points="124,68 88,54.9 53,67.9 53,66 88,53 124,66.1 		"/>
		<rect x="55" y="77" fill="#ABDDE8" width="67" height="1"/>
		<rect x="54" y="76" fill="#82C5D4" width="69" height="1"/>
		<rect x="118" y="93" fill="#F1CE88" width="6" height="1"/>
		<rect x="118" y="95" fill="#ABDDE8" width="4" height="1"/>
		<rect x="118" y="94" fill="#82C5D4" width="5" height="1"/>
		<rect x="56" y="96" fill="#ABDDE8" width="3" height="27"/>
		<rect x="53" y="93" fill="#F1CE88" width="6" height="1"/>
		<rect x="55" y="95" fill="#ABDDE8" width="4" height="1"/>
		<rect x="54" y="94" fill="#82C5D4" width="5" height="1"/>
		<g>
			<path fill="#ABDDE8" d="M87,100v18v1h-1h-9h-1v-1v-18v-1h1h9h1V100z"/>
			<rect x="77" y="100" fill="#ABDDE8" width="9" height="18"/>
		</g>
		<g>
			<path fill="#ABDDE8" d="M101,100v18v1h-1h-9h-1v-1v-18v-1h1h9h1V100z"/>
			<rect x="91" y="100" fill="#ABDDE8" width="9" height="18"/>
		</g>
		<path fill="#ABDDE8" d="M72,114h-7V99h7V114z"/>
		<path fill="#ABDDE8" d="M112,114h-7V99h7V114z"/>
		<g>
			<polygon fill="#F1CE88" points="88,57.3 90.1,63.7 96.8,63.7 91.3,67.6 93.4,74 88,70.1 82.6,74 84.7,67.6 79.2,63.7 85.9,63.7 
							"/>
		</g>
		<g>
			<polygon fill="#F1CE88" points="102.3,62.1 103.7,66.6 108.5,66.6 104.7,69.4 106.1,74 102.3,71.2 98.4,74 99.9,69.4 96,66.6 
				100.8,66.6 			"/>
		</g>
		<g>
			<polygon fill="#F1CE88" points="111.8,66.1 112.8,69.1 116,69.1 113.4,71 114.4,74 111.8,72.1 109.3,74 110.2,71 107.7,69.1 
				110.9,69.1 			"/>
		</g>
		<g>
			<polygon fill="#F1CE88" points="64.2,66.1 65.1,69.1 68.3,69.1 65.8,71 66.7,74 64.2,72.1 61.6,74 62.6,71 60,69.1 63.2,69.1 			
				"/>
		</g>
		<g>
			<polygon fill="#F1CE88" points="73.7,62.1 75.2,66.6 80,66.6 76.1,69.4 77.6,74 73.7,71.2 69.9,74 71.3,69.4 67.5,66.6 
				72.3,66.6 			"/>
		</g>
		<path fill="#ABDDE8" d="M72,96h-7V81h7V96z"/>
		<path fill="#ABDDE8" d="M83,96h-7V81h7V96z"/>
		<path fill="#ABDDE8" d="M112,96h-7V81h7V96z"/>
		<path fill="#ABDDE8" d="M101,96h-7V81h7V96z"/>
		<path fill="#ABDDE8" d="M92,96h-7V81h7V96z"/>
		<circle fill="#ABDDE8" cx="58" cy="81" r="3"/>
		<circle fill="#ABDDE8" cx="119" cy="81" r="3"/>
		<rect x="105" y="86" fill="#82C5D4" width="7" height="1"/>
		<rect x="94" y="86" fill="#82C5D4" width="7" height="1"/>
		<rect x="85" y="86" fill="#82C5D4" width="7" height="1"/>
		<rect x="76" y="86" fill="#82C5D4" width="7" height="1"/>
		<rect x="65" y="86" fill="#82C5D4" width="7" height="1"/>
		<rect x="68" y="81" fill="#82C5D4" width="1" height="5"/>
		<rect x="65" y="104" fill="#82C5D4" width="7" height="1"/>
		<rect x="68" y="99" fill="#82C5D4" width="1" height="5"/>
		<rect x="105" y="104" fill="#82C5D4" width="7" height="1"/>
		<rect x="108" y="99" fill="#82C5D4" width="1" height="5"/>
		<rect x="90" y="104" fill="#82C5D4" width="11" height="1"/>
		<rect x="95" y="99" fill="#82C5D4" width="1" height="5"/>
		<rect x="76" y="104" fill="#82C5D4" width="11" height="1"/>
		<rect x="81" y="99" fill="#82C5D4" width="1" height="5"/>
		<rect x="79" y="81" fill="#82C5D4" width="1" height="5"/>
		<rect x="88" y="81" fill="#82C5D4" width="1" height="5"/>
		<rect x="97" y="81" fill="#82C5D4" width="1" height="5"/>
		<rect x="108" y="81" fill="#82C5D4" width="1" height="5"/>
	</g>
</g>
</svg>
