<?xml version="1.0" encoding="utf-8"?>
<!-- Generator: Adobe Illustrator 18.0.0, SVG Export Plug-In . SVG Version: 6.00 Build 0)  -->
<!DOCTYPE svg PUBLIC "-//W3C//DTD SVG 1.1//EN" "http://www.w3.org/Graphics/SVG/1.1/DTD/svg11.dtd">
<svg version="1.1" id="Layer_1" xmlns="http://www.w3.org/2000/svg" xmlns:xlink="http://www.w3.org/1999/xlink" x="0px" y="0px"
	 viewBox="0 0 176 176" enable-background="new 0 0 176 176" xml:space="preserve">
<g>
	<circle fill="#FFFFFF" cx="88" cy="88" r="88"/>
	<polygon fill="#82C5D4" points="87,87 87,85 83,85 83,87 81,87 81,85 77,85 77,87 75,87 75,85 71,85 71,87 69,87 69,85 65,85 
		65,87 63,87 63,85 59,85 59,87 57,87 57,85 53,85 53,87 52,87 52,103 88,103 88,87 	"/>
	<polygon fill="#F1CE88" points="123,87 123,85 119,85 119,87 117,87 117,85 113,85 113,87 111,87 111,85 107,85 107,87 105,87 
		105,85 101,85 101,87 99,87 99,85 95,85 95,87 93,87 93,85 89,85 89,87 88,87 88,103 124,103 124,87 	"/>
	<polygon fill="#ABDDE8" points="105,71 105,69 101,69 101,71 99,71 99,69 95,69 95,71 93,71 93,69 89,69 89,71 87,71 87,69 83,69 
		83,71 81,71 81,69 77,69 77,71 75,71 75,69 71,69 71,71 70,71 70,87 106,87 106,71 	"/>
</g>
</svg>
