<?xml version="1.0" encoding="utf-8"?>
<!-- Generator: Adobe Illustrator 18.0.0, SVG Export Plug-In . SVG Version: 6.00 Build 0)  -->
<!DOCTYPE svg PUBLIC "-//W3C//DTD SVG 1.1//EN" "http://www.w3.org/Graphics/SVG/1.1/DTD/svg11.dtd">
<svg version="1.1" id="Layer_1" xmlns="http://www.w3.org/2000/svg" xmlns:xlink="http://www.w3.org/1999/xlink" x="0px" y="0px"
	 viewBox="0 0 176 176" enable-background="new 0 0 176 176" xml:space="preserve">
<g>
	<circle fill="#FFFFFF" cx="88" cy="88" r="88"/>
	<g>
		<path opacity="0.1" enable-background="new    " d="M100.7,131.2H70.8c-0.6,0-1.1-0.5-1.1-1.1l0,0c0-0.6,0.5-1.1,1.1-1.1h29.9
			c0.6,0,1.1,0.5,1.1,1.1l0,0C101.8,130.7,101.3,131.2,100.7,131.2z"/>
		<g>
			<g>
				<path fill="#82C5D4" d="M58.5,109l-1.6-1.6c-1.5-1.5-1.6-4-0.2-5.5l36-40.3c0.7-0.7,1.8-0.8,2.5-0.1l9.1,9.1
					c0.7,0.7,0.7,1.9-0.1,2.6l-40.2,36C62.4,110.6,60,110.5,58.5,109z"/>
				<path fill="#ABDDE8" d="M104.9,68.2l-7.1-7.1c-2-2-2-5.3,0-7.4l6.5-6.5c2.9-2.9,7.6-2.9,10.5,0l4,4c2.9,2.9,2.9,7.6,0,10.5
					l-6.5,6.5C110.2,70.2,106.9,70.2,104.9,68.2z"/>
				<path fill="#F1CE88" d="M107,70.3L95.6,58.9c-0.4-0.4-1-0.4-1.4,0L94.1,59c-0.4,0.4-0.4,1,0,1.4l11.4,11.4c0.4,0.4,1,0.4,1.4,0
					l0.1-0.1C107.4,71.3,107.4,70.7,107,70.3z"/>
				<path fill="#ABDDE8" d="M91.5,75.2l-0.8-0.8c-0.5-0.5-0.5-1.2,0-1.7l3-3c0.5-0.5,1.2-0.5,1.7,0l0.8,0.8c0.5,0.5,0.5,1.2,0,1.7
					l-3,3C92.7,75.7,92,75.7,91.5,75.2z"/>
				<g>
					<circle fill="#82C5D4" cx="115.9" cy="60.5" r="1.3"/>
					<circle fill="#82C5D4" cx="112.3" cy="64.1" r="1.3"/>
					<circle fill="#82C5D4" cx="116" cy="53.5" r="1.3"/>
					<circle fill="#82C5D4" cx="112.4" cy="57.1" r="1.3"/>
					<circle fill="#82C5D4" cx="116" cy="57.1" r="1.3"/>
					<circle fill="#82C5D4" cx="108.9" cy="60.6" r="1.3"/>
					<circle fill="#82C5D4" cx="112.4" cy="60.6" r="1.3"/>
					<circle fill="#82C5D4" cx="105.3" cy="64.2" r="1.3"/>
					<circle fill="#82C5D4" cx="108.9" cy="64.2" r="1.3"/>
					<circle fill="#82C5D4" cx="112.4" cy="49.9" r="1.3"/>
					<circle fill="#82C5D4" cx="108.9" cy="53.5" r="1.3"/>
					<circle fill="#82C5D4" cx="112.4" cy="53.5" r="1.3"/>
					<circle fill="#82C5D4" cx="105.3" cy="57.1" r="1.3"/>
					<circle fill="#82C5D4" cx="108.9" cy="57.1" r="1.3"/>
					<circle fill="#82C5D4" cx="101.8" cy="60.6" r="1.3"/>
					<circle fill="#82C5D4" cx="105.3" cy="60.6" r="1.3"/>
					<circle fill="#82C5D4" cx="105.3" cy="49.9" r="1.3"/>
					<circle fill="#82C5D4" cx="108.9" cy="49.9" r="1.3"/>
					<circle fill="#82C5D4" cx="101.8" cy="53.5" r="1.3"/>
					<circle fill="#82C5D4" cx="105.3" cy="53.5" r="1.3"/>
					<circle fill="#82C5D4" cx="101.8" cy="57.1" r="1.3"/>
				</g>
			</g>
			<g>
				<path fill="#F1CE88" d="M83.3,70.7l-0.6-0.6L68,88.1c1.8,1.8,4.7,1.6,6.3-0.3l9.3-11.4C85,74.7,84.9,72.2,83.3,70.7z"/>
				<path fill="#F1CE88" d="M95.8,83.2l-0.6-0.6c-1.5-1.5-4-1.7-5.7-0.3l-11.4,9.3c-1.9,1.6-2.1,4.5-0.3,6.3l2.8-1.8
					c1.1-0.7,2.5-0.3,3,0.9c0.2,0.5,0.3,1.1,0.3,1.7V125h3.6V96.4c0-1.6,0.3-3.1,0.8-4.6l0,0c0.8-2.3,2.3-4.4,4.2-5.9L95.8,83.2
					L95.8,83.2z"/>
			</g>
			<path fill="#F1CE88" d="M98.5,127.6h-0.9c-2,0-4.1-0.4-5.9-1.3l-3-1.4c-0.4-0.2-0.7-0.6-0.7-1.1v-0.1h-4.7v0.1
				c0,0.5-0.3,0.9-0.7,1.1l-3,1.4c-1.9,0.8-3.9,1.3-5.9,1.3h-0.9c-0.6,0-1.2,0.5-1.2,1.2c0,0.6,0.5,1.2,1.2,1.2h25.6
				c0.6,0,1.2-0.5,1.2-1.2C99.7,128.2,99.2,127.6,98.5,127.6z"/>
		</g>
	</g>
</g>
</svg>
