<?xml version="1.0" encoding="utf-8"?>
<!-- Generator: Adobe Illustrator 18.0.0, SVG Export Plug-In . SVG Version: 6.00 Build 0)  -->
<!DOCTYPE svg PUBLIC "-//W3C//DTD SVG 1.1//EN" "http://www.w3.org/Graphics/SVG/1.1/DTD/svg11.dtd">
<svg version="1.1" id="Layer_1" xmlns="http://www.w3.org/2000/svg" xmlns:xlink="http://www.w3.org/1999/xlink" x="0px" y="0px"
	 viewBox="0 0 176 176" enable-background="new 0 0 176 176" xml:space="preserve">
<g>
	<circle fill="#FFFFFF" cx="88" cy="88" r="88"/>
	<g>
		<path id="path-5_3_" opacity="0.1" enable-background="new    " d="M71.2,118.9h32.2c0.8,0,1.4,0.7,1.4,1.5s-0.6,1.5-1.4,1.5H71.2
			c-0.8,0-1.4-0.7-1.4-1.5S70.5,118.9,71.2,118.9z"/>
		<path fill="#F1CE88" d="M107.9,68.8c0-1.5-1-2.8-2.4-3.3l-0.7-0.2l0.4-0.6c0.4-0.6,0.7-1.4,0.7-2.1c0-2.1-1.7-3.7-3.7-3.7
			c-0.6,0-1.2,0.2-1.7,0.4l-0.5,0.3l-0.2-0.5c-0.6-1.7-2.3-2.9-4.1-2.9c-0.4,0-0.8,0.1-1.3,0.2L94,56.5l-0.2-0.4
			c-1-1.9-2.9-3.1-5-3.1s-4.1,1.2-5,3.1l-0.3,0.6L83,56.2c-0.6-0.6-1.4-1-2.2-1c-1.7,0-3.1,1.4-3.1,3.1c0,0.5,0.1,1,0.4,1.4l0.3,0.6
			l-0.7,0.1c-1.2,0.2-2.3,1-2.8,2.2l-0.2,0.5l-0.5-0.2c-0.7-0.3-1.5-0.5-2.3-0.5c-3.1,0-5.6,2.5-5.6,5.6s2.5,5.6,5.6,5.6
			c1.6,0,3.2-0.7,4.3-2l0.7-0.8l0.2,1.1c0.3,1.9,2,3.3,3.9,3.3c1.7,0,3.2-1.1,3.8-2.7l0.1-0.3h0.3c1.4-0.1,2.5-1,3-2.3l0.2-0.5
			l0.5,0.3c1.7,0.9,3.6,0.4,4.7-0.9l0.5-0.6l0.3,0.8c0.7,1.6,2.2,2.6,4,2.6c1,0,2-0.4,2.7-1l0.4-0.4l0.3,0.5
			c0.6,0.9,1.7,1.5,2.9,1.5C106.3,72.3,107.9,70.7,107.9,68.8z"/>
		<path fill="#82C5D4" d="M118,76.7c-0.2-3.6-3.3-6.5-6.9-6.5h-2.5c-0.4,1.3-1.4,2.3-2.7,2.8l0,0c-0.5,0.2-1,0.3-1.5,0.3
			c-1.3,0-2.5-0.6-3.4-1.5c-0.1,0.1-0.2,0.1-0.3,0.2l0,0c-0.8,0.5-1.7,0.8-2.7,0.8c-1.9,0-3.6-1-4.6-2.6c-1.3,1.2-3.3,1.6-5,0.9
			c-0.7,1.3-1.9,2.1-3.3,2.4c-0.8,1.8-2.6,3-4.6,3c-2.1,0-4-1.3-4.7-3.3c-1.2,1.1-2.8,1.7-4.4,1.7c-1,0-1.9-0.2-2.7-0.6l2.5,43.2
			c0,1.7,1.3,3,3,3h26c1.7,0,3-1.3,3-3l0.4-6.1l8.7-5c1.2-0.9,2.1-1.9,2.8-3c1.1-1.7,1.7-3.6,1.8-5.7l0.1-1.6
			C117.7,88.1,118.2,79.5,118,76.7z M112.1,95.8l-0.1,1.6c-0.1,1.2-0.4,2.3-1.1,3.3c-0.4,0.6-0.9,1.1-1.6,1.6l-5.3,2.5l1.7-29.6h5.3
			c1,0,1.8,0.8,1.9,1.8C113.2,79.9,112.4,91.4,112.1,95.8z"/>
		<g>
			<path fill="#ABDDE8" d="M82.5,76c-0.6,0.2-1.2,0.4-1.8,0.4c-2.1,0-4-1.3-4.7-3.3c-1.2,1-2.7,1.6-4.2,1.7l2.4,39.8
				c0,1.7,1.3,3,3,3h0.6c1.8,0,3.2-1.4,3.3-3.1L82.5,76z"/>
		</g>
	</g>
	<circle fill="#FFFFFF" cx="99.1" cy="42.2" r="0.7"/>
	<circle fill="#FFFFFF" cx="96.5" cy="42.8" r="0.7"/>
	<circle fill="#FFFFFF" cx="93.6" cy="41.3" r="0.7"/>
	<circle fill="#FFFFFF" cx="96.2" cy="40.5" r="0.7"/>
	<circle fill="#FFFFFF" cx="101.3" cy="39.4" r="0.7"/>
	<circle fill="#FFFFFF" cx="103" cy="42.5" r="0.7"/>
	<circle fill="#FFFFFF" cx="106.2" cy="41.8" r="0.7"/>
	<circle fill="#FFFFFF" cx="106.2" cy="44.6" r="0.7"/>
	<circle fill="#FFFFFF" cx="108.7" cy="41.6" r="0.7"/>
	<circle fill="#FFFFFF" cx="110.9" cy="40.1" r="0.7"/>
	<circle fill="#FFFFFF" cx="113" cy="38.4" r="0.7"/>
	<circle fill="#FFFFFF" cx="115.6" cy="39.6" r="0.7"/>
	<circle fill="#FFFFFF" cx="117" cy="37.4" r="0.7"/>
	<circle fill="#FFFFFF" cx="120.6" cy="37.8" r="0.7"/>
	<circle fill="#FFFFFF" cx="122.2" cy="40.6" r="0.7"/>
	<circle fill="#FFFFFF" cx="125.3" cy="39" r="0.7"/>
	<circle fill="#FFFFFF" cx="128.6" cy="41.2" r="0.7"/>
	<circle fill="#FFFFFF" cx="131" cy="39.6" r="0.7"/>
</g>
</svg>
