<?xml version="1.0" encoding="utf-8"?>
<!-- Generator: Adobe Illustrator 18.0.0, SVG Export Plug-In . SVG Version: 6.00 Build 0)  -->
<!DOCTYPE svg PUBLIC "-//W3C//DTD SVG 1.1//EN" "http://www.w3.org/Graphics/SVG/1.1/DTD/svg11.dtd">
<svg version="1.1" id="Layer_1" xmlns="http://www.w3.org/2000/svg" xmlns:xlink="http://www.w3.org/1999/xlink" x="0px" y="0px"
	 viewBox="0 0 176 176" enable-background="new 0 0 176 176" xml:space="preserve">
<g>
	<circle fill="#FFFFFF" cx="88" cy="88" r="88"/>
	<g>
		<circle id="circle-1" opacity="0.1" enable-background="new    " cx="88" cy="90.5" r="40"/>
		<circle id="circle-2" fill="#ABDDE8" cx="88" cy="85.5" r="40"/>
		<circle id="circle-3" fill="#82C5D4" cx="88" cy="85.5" r="28"/>
		<circle id="circle-4" fill="#FFFFFF" cx="88" cy="85.5" r="26"/>
		<path id="path-1" opacity="0.1" enable-background="new    " d="M85.3,85.1C85.7,86,86,87,86,88c0,3.6-2.9,6.5-6.5,6.5
			c-3.4,0-6.2-2.7-6.5-6.1c-0.3,0-0.7,0.1-1,0.1c-4.4,0-8-3.6-8-8s3.6-8,8-8c2,0,3.9,0.8,5.3,2c1.3-1.8,3.4-3,5.7-3c3.9,0,7,3.1,7,7
			C90,81.6,88,84.1,85.3,85.1z"/>
		<path id="path-2" fill="#85C6D5" d="M103,88c0,4.1-3.4,7.5-7.5,7.5c-1.2,0-2.4-0.3-3.5-0.8c-1.3,2.3-3.7,3.8-6.5,3.8
			c-4.1,0-7.5-3.4-7.5-7.5s3.4-7.5,7.5-7.5c0.8,0,1.6,0.1,2.4,0.4C86.2,82.5,85,80.4,85,78c0-4.1,3.4-7.5,7.5-7.5s7.5,3.4,7.5,7.5
			c0,1.2-0.3,2.4-0.8,3.5C101.4,82.7,103,85.2,103,88z"/>
		<path id="path-3" fill="#ABDDE8" d="M103,87c0,4.1-3.4,7.5-7.5,7.5c-1.2,0-2.4-0.3-3.5-0.8c-1.3,2.3-3.7,3.8-6.5,3.8
			c-4.1,0-7.5-3.4-7.5-7.5s3.4-7.5,7.5-7.5c0.8,0,1.6,0.1,2.4,0.4C86.2,81.5,85,79.4,85,77c0-4.1,3.4-7.5,7.5-7.5s7.5,3.4,7.5,7.5
			c0,1.2-0.3,2.4-0.8,3.5C101.4,81.7,103,84.2,103,87z"/>
		<path id="path-4" fill="#79B8BF" d="M85.3,84.1C85.7,85,86,86,86,87c0,3.6-2.9,6.5-6.5,6.5c-3.4,0-6.2-2.7-6.5-6.1
			c-0.3,0-0.7,0.1-1,0.1c-4.4,0-8-3.6-8-8s3.6-8,8-8c2,0,3.9,0.8,5.3,2c1.3-1.8,3.4-3,5.7-3c3.9,0,7,3.1,7,7
			C90,80.6,88,83.1,85.3,84.1z"/>
		<path id="path-5" fill="#82C5D4" d="M85.3,83.1C85.7,84,86,85,86,86c0,3.6-2.9,6.5-6.5,6.5c-3.4,0-6.2-2.7-6.5-6.1
			c-0.3,0-0.7,0.1-1,0.1c-4.4,0-8-3.6-8-8s3.6-8,8-8c2,0,3.9,0.8,5.3,2c1.3-1.8,3.4-3,5.7-3c3.9,0,7,3.1,7,7
			C90,79.6,88,82.1,85.3,83.1z"/>
		<g id="group-4">
			<path id="path-6" fill="#F1CE88" d="M144.1,52.6v41l0.9,1.7v24.1c0,0-0.6,4.3-3.4,2.7s-2.8-6.7-2.9-13.7
				c-0.1-7,0.3-11.7,0.4-13.2c0.1-1.2,1.2-3,1.2-3s-3.4-6.4-3.4-21.9c0-21.1,4.4-20.5,6.3-19.3C143.8,51.3,144.1,52,144.1,52.6z"/>
		</g>
		<g id="group-3">
			<path id="path-7" fill="#F1CE88" d="M42.9,65.3c0,0.7-0.2,1.4-0.7,1.9c-1.3,1.3-3.8,4.2-3.8,7.2c0,5.5,0,13.2,0,18.6
				c0.5,0.5,0.6,1.5,0.6,2.5l1,23c0,1.7-1.3,3-3,3s-3-1.3-3-3l1-23c0-1,0.1-1.9,0.6-2.5c0-5.3,0-12.9,0-18.4c0-3.1-2.5-6-3.9-7.4
				c-0.5-0.5-0.8-1.2-0.7-1.9L31.9,52c0-0.3,0.2-0.5,0.5-0.5s0.5,0.2,0.5,0.5v10.5c0,0.6,0.4,1,1,1s1-0.4,1-1V51
				c0-0.3,0.2-0.5,0.5-0.5s0.5,0.2,0.5,0.5v11.5c0,0.6,0.4,1,1,1s1-0.4,1-1V51c0-0.3,0.2-0.5,0.5-0.5s0.5,0.2,0.5,0.5v11.5
				c0,0.6,0.4,1,1,1s1-0.4,1-1V52c0-0.3,0.2-0.5,0.5-0.5s0.5,0.2,0.5,0.5L42.9,65.3z"/>
		</g>
	</g>
</g>
</svg>
