<?xml version="1.0" encoding="utf-8"?>
<!-- Generator: Adobe Illustrator 18.0.0, SVG Export Plug-In . SVG Version: 6.00 Build 0)  -->
<!DOCTYPE svg PUBLIC "-//W3C//DTD SVG 1.1//EN" "http://www.w3.org/Graphics/SVG/1.1/DTD/svg11.dtd">
<svg version="1.1" id="Layer_1" xmlns="http://www.w3.org/2000/svg" xmlns:xlink="http://www.w3.org/1999/xlink" x="0px" y="0px"
	 viewBox="0 0 176 176" enable-background="new 0 0 176 176" xml:space="preserve">
<g>
	<circle fill="#FFFFFF" cx="88" cy="88" r="88"/>
	<g>
		<path opacity="0.1" enable-background="new    " d="M130,108.7H47c-1.1,0-2-0.9-2-2l0,0c0-1.1,0.9-2,2-2h83c1.1,0,2,0.9,2,2l0,0
			C132,107.8,131.1,108.7,130,108.7z"/>
		<path fill="#82C5D4" d="M128,106H49c-1.7,0-3-1.3-3-3l0,0c0-1.7,1.3-3,3-3h79c1.7,0,3,1.3,3,3l0,0C131,104.7,129.7,106,128,106z"
			/>
		<path fill="#ABDDE8" d="M124.1,100H52.9c-1.6,0-2.9-1.3-2.9-2.9v-0.3c0-1.6,1.3-2.9,2.9-2.9h71.3c1.6,0,2.9,1.3,2.9,2.9v0.3
			C127,98.7,125.7,100,124.1,100z"/>
		<rect x="86" y="58" fill="#82C5D4" width="4" height="7"/>
		<path fill="#F1CE88" d="M121.9,94c-1.5-17.4-16.1-31-33.9-31S55.7,76.6,54.1,94H121.9z"/>
		<path fill="#FFFFFF" d="M87,67.4c-1-0.2-2-0.3-3-0.3C72,67.2,62.2,79,61.1,94h6.1C68.1,80.2,76.4,69.2,87,67.4z"/>
		<circle fill="#F1CE88" cx="88" cy="58" r="4"/>
		<path fill="#FFFFFF" d="M85.7,58.6c0-1.6,1.3-2.9,2.9-2.9c0.6,0,1.2,0.2,1.7,0.5c-0.5-0.8-1.4-1.2-2.4-1.2c-1.6,0-2.9,1.3-2.9,2.9
			c0,1,0.5,1.9,1.2,2.4C85.9,59.8,85.7,59.2,85.7,58.6z"/>
	</g>
</g>
</svg>
