<?xml version="1.0" encoding="utf-8"?>
<!-- Generator: Adobe Illustrator 18.0.0, SVG Export Plug-In . SVG Version: 6.00 Build 0)  -->
<!DOCTYPE svg PUBLIC "-//W3C//DTD SVG 1.1//EN" "http://www.w3.org/Graphics/SVG/1.1/DTD/svg11.dtd">
<svg version="1.1" id="Layer_1" xmlns="http://www.w3.org/2000/svg" xmlns:xlink="http://www.w3.org/1999/xlink" x="0px" y="0px"
	 viewBox="0 0 176 176" enable-background="new 0 0 176 176" xml:space="preserve">
<g>
	<circle fill="#FFFFFF" cx="88" cy="88" r="88"/>
	<g>
		<path id="path-1_3_" opacity="0.1" enable-background="new    " d="M68,114h43c1.1,0,2,0.9,2,2s-0.9,2-2,2H68c-1.1,0-2-0.9-2-2
			S66.9,114,68,114z"/>
		<path id="path-2_2_" fill="#82C5D4" d="M70.2,109.6c-10.2,0-28.1-13.9-28.1-24.1c0-10.2-3-17.6,22.5-15.2
			c10.2,1,19.1,4.9,19.1,15.2C83.7,95.7,80.4,109.6,70.2,109.6z M59,75c-10.5-0.5-12,2.6-11.2,10.5c0.7,7.1,13.5,14.1,13.5,12.9
			c0.2-9.2,3.2-11.2,6.4-17.6C70.7,74.5,66.7,75.4,59,75z"/>
		<path fill="#ABDDE8" d="M133.9,72h-3.8c-1.5,0-2.6,0.3-3.5,0.9l-9.3,6.2c-0.5,0.3-1.1,0.1-1.3-0.4c-1.4-3.6-3.9-6.8-7-9
			c-1.5-1.1-3.3-1.6-5.2-1.6H75.1c-2.3,0-4.6,0.7-6.4,2.2C64,74,61.1,79.6,61.1,86v11.3c0,10.4,8.4,18.8,18.8,18.8h17
			c8.6,0,16.1-5.2,19.1-12.7c3.8-6.7,11.7-20.7,15.9-27.4c0.6-1,1.5-1.9,2.4-2.6C134.9,72.8,134.5,72,133.9,72z"/>
		<path fill="#82C5D4" d="M107,90c-9.3,0-19.9-6-29-6c-7.9,0-14.2,1.8-16.8,2.6v9.8c0,11,7.7,19.6,18.8,19.6h17
			c8.6,0,16.1-5.2,19.1-12.7c2.4-4.3,6.5-11.5,10.3-18C124.1,86.5,116.2,90,107,90z"/>
		<path fill="#F1CE88" d="M103.6,65h-10c0.6-0.8,1-1.9,1-3c0-2.8-2.2-5-5-5s-5,2.2-5,5c0,1.1,0.4,2.2,1,3h-10
			c-0.8,0-1.5,0.7-1.5,1.5s0.7,1.5,1.5,1.5h28c0.8,0,1.5-0.7,1.5-1.5S104.4,65,103.6,65z"/>
	</g>
</g>
</svg>
