<?xml version="1.0" encoding="utf-8"?>
<!-- Generator: Adobe Illustrator 18.0.0, SVG Export Plug-In . SVG Version: 6.00 Build 0)  -->
<!DOCTYPE svg PUBLIC "-//W3C//DTD SVG 1.1//EN" "http://www.w3.org/Graphics/SVG/1.1/DTD/svg11.dtd">
<svg version="1.1" id="Layer_1" xmlns="http://www.w3.org/2000/svg" xmlns:xlink="http://www.w3.org/1999/xlink" x="0px" y="0px"
	 viewBox="0 0 176 176" enable-background="new 0 0 176 176" xml:space="preserve">
<g>
	<circle fill="#FFFFFF" cx="88" cy="88" r="88"/>
	<g>
		<path opacity="0.1" enable-background="new    " d="M111.3,143H54.7c-1,0-1.7-0.8-1.7-1.7v-0.5c0-1,0.8-1.7,1.7-1.7h56.5
			c1,0,1.7,0.8,1.7,1.7v0.5C113,142.2,112.2,143,111.3,143z"/>
		<g>
			<path fill="#ABDDE8" d="M105.2,63.8c-2-0.6-3.4-2.5-3.5-4.6l-1.1-21.7c0.6-0.2,1.1-0.8,1.1-1.4c0-0.7-0.5-1.3-1.2-1.5l-0.1-2.1
				h0.2c0.4,0,0.7-0.3,0.7-0.7v0c0-0.4-0.3-0.7-0.7-0.7h-0.3h-9.5h-0.3c-0.4,0-0.7,0.3-0.7,0.7v0c0,0.4,0.3,0.7,0.7,0.7h0.2
				l-0.1,2.1c-0.7,0.1-1.2,0.7-1.2,1.5c0,0.7,0.5,1.2,1.1,1.4l-1.1,21.8c-0.1,2.1-1.5,3.9-3.4,4.5c-3.9,1.2-6.8,4.4-7.7,8.4
				c1.1,3.6,3.1,10.5,4.4,19.3c0.5,3.2,1.2,11.4-2.8,17.7l-0.1,0.1c-0.5,0.8-1.1,1.6-1.8,2.3v22.3c0,3.9,3.2,7.1,7.1,7.1h20.8
				c3.9,0,7.1-3.2,7.1-7.1V74.4C113,69.4,109.7,65.2,105.2,63.8z"/>
			<polygon fill="#82C5D4" points="90.2,41.3 89.4,57.7 101.6,57.7 100.8,41.3 			"/>
			<path fill="#F1CE88" d="M98.9,31c0-0.2,0.1-0.4,0.1-0.5V29c0-1.1-0.9-2-2-2h-2.8c-1.1,0-2,0.9-2,2v1.4c0,0.2,0,0.4,0.1,0.5H98.9z
				"/>
			<g>
				<circle fill="#FFFFFF" cx="93.2" cy="29.1" r="0.5"/>
				<circle fill="#FFFFFF" cx="94.4" cy="28" r="0.5"/>
				<circle fill="#FFFFFF" cx="95.5" cy="29.1" r="0.5"/>
				<circle fill="#FFFFFF" cx="96.6" cy="27.9" r="0.5"/>
				<circle fill="#FFFFFF" cx="97.8" cy="29.1" r="0.5"/>
				<circle fill="#FFFFFF" cx="94.4" cy="30.3" r="0.5"/>
				<circle fill="#FFFFFF" cx="96.6" cy="30.3" r="0.5"/>
			</g>
			<path fill="#ABDDE8" d="M68,135v-17c0-1.7,1.1-3.1,2.7-3.6C81,111.1,82.2,99.6,81,91.7c-1.9-12.6-5.2-21.6-5.2-21.6h-9.6h-9.6
				c0,0-3.3,9-5.2,21.6c-1.2,7.9,0,19.5,10.3,22.7c1.6,0.5,2.7,1.9,2.7,3.6v17c0,1.5-0.9,2.9-2.4,3.4l-8,1.9v0.7h10.3h1.8H68h10.3
				v-0.7l-8-1.9C68.9,137.9,68,136.5,68,135z"/>
			<path fill="#82C5D4" d="M70.7,114.4c7.2-2.3,9.9-8.6,10.5-15c-1,0.8-6.4,3.3-15-0.1c-8-3.2-14-0.7-15.1-0.1
				c0.6,6.4,3.3,12.8,10.6,15.2c1.6,0.5,2.7,1.9,2.7,3.6v17c0,1.5-0.9,2.9-2.4,3.4l-8,1.9v0.7h10.3h1.8H68h10.3v-0.7l-8-1.9
				c-1.4-0.5-2.4-1.9-2.4-3.4v-17C68,116.3,69.1,114.9,70.7,114.4z"/>
			<path fill="#82C5D4" d="M95.5,74.4c-7.1-4.8-15.3-1.1-17.1-0.2c1.1,3.9,2.7,9.9,3.7,17.2c0.5,3.2,1.2,11.4-2.8,17.7l-0.1,0.1
				c-0.4,0.6-0.8,1.2-1.3,1.7v22.9c0,3.9,3.2,7.1,7.1,7.1h20.8c3.9,0,7.1-3.2,7.1-7.1V74.4C113,74.4,104.7,80.7,95.5,74.4z"/>
		</g>
	</g>
</g>
</svg>
