<?xml version="1.0" encoding="utf-8"?>
<!-- Generator: Adobe Illustrator 18.0.0, SVG Export Plug-In . SVG Version: 6.00 Build 0)  -->
<!DOCTYPE svg PUBLIC "-//W3C//DTD SVG 1.1//EN" "http://www.w3.org/Graphics/SVG/1.1/DTD/svg11.dtd">
<svg version="1.1" id="Layer_1" xmlns="http://www.w3.org/2000/svg" xmlns:xlink="http://www.w3.org/1999/xlink" x="0px" y="0px"
	 viewBox="0 0 1858.9 423.9" enable-background="new 0 0 1858.9 423.9" xml:space="preserve">
<path fill="#49C4E0" d="M194,1.1c-24.2,2.5-52.9,10.8-74.4,21.6C52.9,56.1,8.3,119.5,1,190.9c-11.2,110.8,69.6,211.6,184,229.6
	c57.4,9,124.9-7.7,167.4-41.5l7.3-5.8l0.6,11.1c0.9,21.4,9,33.5,25.2,38.2c15.1,4.4,31.2-1.8,38.9-15c5.9-10,5.6,0.3,5.6-195.5
	c0-148.9-0.3-180.4-1.4-184.6C424.1,10.5,412.2,0.8,396,0.6c-10.1-0.1-16.6,2.2-23.5,8.5C363.9,17,360,27.7,360,43.2v6.9l-6.7-5.4
	C312.9,12.5,250.3-4.6,194,1.1z M235,71.5c24.6,4.9,46.8,16.5,64.7,33.8c10.6,10.3,15.3,16.1,22.2,27.6
	c29.2,48.5,22,111.1-18.8,164.5c-22.1,29-56.2,58.8-89.2,77.9l-4.5,2.7l-9.2-5.5c-29.4-17.3-62.1-45-80.2-68
	C99.9,279,86.6,251.4,81.4,224c-2.4-13-2.5-38.2-0.1-50.3c7.8-39,32.9-72.2,68.3-90.2c10.7-5.5,27.1-10.9,37.4-12.4
	c4.1-0.6,8.6-1.3,10-1.5C201.9,68.7,227.6,70,235,71.5z"/>
<path fill="#49C4E0" d="M194.6,139.5c-13.2,3.6-27.1,14-34,25.4c-5.8,9.4-7.9,17.2-7.9,28.6c-0.1,16.6,4.4,27.6,16.3,39.6
	c11.4,11.6,24.2,16.9,40.5,16.9c26,0,47.7-16.4,55.1-41.6c2.1-7.1,2.3-19.8,0.5-27.4c-4.8-19.7-21.2-36.2-41.1-41.5
	C217.2,137.7,201.2,137.7,194.6,139.5z"/>
<path fill="#49C4E0" d="M758,26.7c-46.3,3.2-87.1,20.8-119.7,51.6c-31.1,29.5-51.3,69.6-56.4,112c-1.7,14.2-0.7,41.4,2.1,55.2
	c11.1,56,46.3,102.9,97.1,129.4c17.6,9.2,34.4,14.8,55.4,18.8c11.1,2,40.8,2.8,53.1,1.4c38.9-4.6,74.6-20.3,103.6-45.5
	c13.7-11.9,17.8-19.3,17.8-31.7c0-13.2-7.2-24.9-18.8-30.6c-5.1-2.5-6.8-2.8-15.7-2.8c-12.3,0-16,1.6-27.2,11.6
	c-20.4,18.3-43,28.3-69.9,31c-50.9,5.2-101.5-25.2-120.4-72.4c-17.9-44.8-7.2-93.7,27.9-127c35.1-33.4,86.9-41.9,131.9-21.6
	c8.9,4,21.5,12.5,30.2,20.4c10.6,9.6,16.1,12,27.5,12c7.7,0,9.8-0.4,14.7-2.7c12-5.6,18.8-15.8,19.6-29.3c0.7-14.5-4-22.4-23.1-37.9
	C857.6,44.2,822.2,30.2,782.6,27C770.1,26,767.6,26,758,26.7z"/>
<path fill="#49C4E0" d="M979.5,27.9c-9.6,2.6-18.7,9.8-23.3,18.6l-2.7,5l-0.3,167.8L953,387h83.7c52.8,0,86.2-0.4,90.2-1
	c16-2.6,26.2-13.5,26.2-28c0.1-12.6-5.3-21-17.1-26.8l-5.5-2.7l-53.7-0.3l-53.8-0.3l-0.2-137.2l-0.3-137.2l-2.6-5.6
	C1014,35.5,1003,28,989.7,27.4C985.7,27.2,981.2,27.5,979.5,27.9z"/>
<path fill="#49C4E0" d="M1201.3,28.4c-10.4,3.4-17.6,9.8-22.2,19.6l-2.6,5.5V154c0,100.2,0,100.5,2.3,112.3
	c13.9,72.4,70.5,123.8,142.7,129.6c46.8,3.7,91.9-13,124.1-46.1c24-24.6,37.6-51.4,43.5-85.6c1.8-10.8,1.9-16.8,1.9-111V53.5
	l-2.9-6.2c-3.6-7.5-9.4-13.3-16.9-17c-5-2.4-6.9-2.8-14.7-2.8c-7.7,0-9.9,0.4-14.8,2.7c-7.5,3.5-14.9,11.2-17.9,18.5l-2.3,5.8
	L1421,154c-0.6,112.6,0,103.8-9.1,122.7c-15,31.2-45.6,50.9-78.9,50.6c-35.2-0.3-69.3-25.1-81-58.9c-5.6-16-5.3-10-5.9-117.4
	l-0.6-99.5l-2.7-5c-3.3-6.3-11.3-13.9-17.5-16.6C1219.2,27.2,1207.1,26.5,1201.3,28.4z"/>
<path fill="#49C4E0" d="M1545.2,197.2l0.3,166.3l2.3,5c4.6,9.9,12.7,15.6,25.2,17.6c9.6,1.5,167.9,0.6,180-1
	c50.7-6.7,80.9-24.2,96-55.6c9.7-20,12.6-48.7,7-68.5c-4.8-17.1-15.8-34.6-28.4-45.2c-5.8-4.8-18.2-11.9-25.1-14.2
	c-1.6-0.6-0.7-1.4,5.1-4.4c13.5-7.2,25.2-17.8,31.4-28.5c7.5-13,10.4-31.3,8-50.3c-5.8-46.6-34.7-74.4-88.1-84.6
	c-11.2-2.1-13.6-2.2-112.7-2.5L1545,30.9L1545.2,197.2z M1742.3,91.8c16.1,4.4,26.8,12.6,32.9,24.9c3,6.2,3.3,7.5,3.3,15.8
	c-0.1,7.4-0.5,9.9-2.5,14c-3.3,6.7-9,12.1-16.4,15.6c-13.1,6.1-14.1,6.2-82.3,6.6l-62.3,0.4v-39.4c0-21.6,0.3-39.7,0.7-40.1
	s27.3-0.6,59.8-0.4C1732.3,89.6,1734.8,89.7,1742.3,91.8z M1737.6,227c24.7,6.2,45.9,23.9,50.9,42.4c5.9,21.6-6.9,42-32.4,51.9
	c-16.6,6.4-19.5,6.7-83.3,6.7H1615v-51.5V225h57.3C1726.2,225,1730.2,225.1,1737.6,227z"/>
</svg>
