<?xml version="1.0" encoding="utf-8"?>
<!-- Generator: Adobe Illustrator 18.0.0, SVG Export Plug-In . SVG Version: 6.00 Build 0)  -->
<!DOCTYPE svg PUBLIC "-//W3C//DTD SVG 1.1//EN" "http://www.w3.org/Graphics/SVG/1.1/DTD/svg11.dtd">
<svg version="1.1" id="Layer_1" xmlns="http://www.w3.org/2000/svg" xmlns:xlink="http://www.w3.org/1999/xlink" x="0px" y="0px"
	 viewBox="0 0 78 78" enable-background="new 0 0 78 78" xml:space="preserve">
<g>
	<path fill="#4DC5E0" d="M39,2c20.4,0,37.1,16.6,37.1,37S59.4,76.1,39,76.1S2,59.4,2,39S18.6,2,39,2 M39,0C17.5,0,0,17.5,0,39
		c0,21.5,17.5,39,39,39s39-17.5,39-39C78,17.5,60.5,0,39,0z"/>
	<path fill="#4DC5E0" d="M41.9,57.8V40.6h5.8l0.9-6.7h-6.6v-4.3c0-1.9,0.5-3.2,3.3-3.2l3.5,0v-6c-0.6-0.1-2.7-0.3-5.1-0.3
		c-5.1,0-8.6,3.1-8.6,8.8V34h-5.8v6.7H35v17.1L41.9,57.8L41.9,57.8"/>
</g>
</svg>
