<?xml version="1.0" encoding="utf-8"?>
<!-- Generator: Adobe Illustrator 18.0.0, SVG Export Plug-In . SVG Version: 6.00 Build 0)  -->
<!DOCTYPE svg PUBLIC "-//W3C//DTD SVG 1.1//EN" "http://www.w3.org/Graphics/SVG/1.1/DTD/svg11.dtd">
<svg version="1.1" id="Layer_1" xmlns="http://www.w3.org/2000/svg" xmlns:xlink="http://www.w3.org/1999/xlink" x="0px" y="0px"
	 viewBox="0 0 25 48" enable-background="new 0 0 25 48" xml:space="preserve">
<g>
	<path fill="#49C4E1" d="M24,23c0.3,0,0.5,0.1,0.7,0.3c0.4,0.4,0.4,1,0,1.4l-23,23c-0.4,0.4-1,0.4-1.4,0s-0.4-1,0-1.4l23-23
		C23.5,23.1,23.7,23,24,23z"/>
</g>
<g>
	<path fill="#49C4E1" d="M1,0c0.3,0,0.5,0.1,0.7,0.3l23,23c0.4,0.4,0.4,1,0,1.4s-1,0.4-1.4,0l-23-23c-0.4-0.4-0.4-1,0-1.4
		C0.5,0.1,0.7,0,1,0z"/>
</g>
</svg>
