<?xml version="1.0" encoding="utf-8"?>
<!-- Generator: Adobe Illustrator 18.0.0, SVG Export Plug-In . SVG Version: 6.00 Build 0)  -->
<!DOCTYPE svg PUBLIC "-//W3C//DTD SVG 1.1//EN" "http://www.w3.org/Graphics/SVG/1.1/DTD/svg11.dtd">
<svg version="1.1" id="Layer_1" xmlns="http://www.w3.org/2000/svg" xmlns:xlink="http://www.w3.org/1999/xlink" x="0px" y="0px"
	 viewBox="0 0 134.3 134.3" enable-background="new 0 0 134.3 134.3" xml:space="preserve">
<path fill-rule="evenodd" clip-rule="evenodd" d="M55.6,0C24.9,0,0,24.9,0,55.6c0,30.7,24.9,55.6,55.6,55.6
	c30.7,0,55.6-24.9,55.6-55.6C111.3,24.9,86.3,0,55.6,0z M55.6,89c-18.4,0-33.4-14.9-33.4-33.4c0-18.4,14.9-33.4,33.4-33.4
	C74.1,22.3,89,37.2,89,55.6C89,74.1,74.1,89,55.6,89z"/>
<path fill-rule="evenodd" clip-rule="evenodd" d="M81.1,96.9l15.7-15.7l37.4,37.4l-15.7,15.7L81.1,96.9z"/>
</svg>
