<?xml version="1.0" encoding="utf-8"?>
<!-- Generator: Adobe Illustrator 18.0.0, SVG Export Plug-In . SVG Version: 6.00 Build 0)  -->
<!DOCTYPE svg PUBLIC "-//W3C//DTD SVG 1.1//EN" "http://www.w3.org/Graphics/SVG/1.1/DTD/svg11.dtd">
<svg version="1.1" id="Layer_1" xmlns="http://www.w3.org/2000/svg" xmlns:xlink="http://www.w3.org/1999/xlink" x="0px" y="0px"
	 viewBox="0 0 78 78" enable-background="new 0 0 78 78" xml:space="preserve">
<g>
	<path fill="#4DC5E0" d="M39,2c20.4,0,37.1,16.6,37.1,37S59.4,76.1,39,76.1S2,59.4,2,39S18.6,2,39,2 M39,0C17.5,0,0,17.5,0,39
		c0,21.5,17.5,39,39,39s39-17.5,39-39C78,17.5,60.5,0,39,0z"/>
	<path fill="#4DC5E0" d="M58.5,26.9L58.5,26.9 M46.5,23.2c-4.4,0-8,3.6-8,8c0,0.6,0.1,1.2,0.2,1.8c-6.6-0.3-12.5-3.5-16.5-8.4
		c-0.7,1.2-1.1,2.6-1.1,4c0,2.8,1.4,5.2,3.6,6.7c-1.3,0-2.5-0.4-3.6-1c0,0,0,0.1,0,0.1c0,3.9,2.8,7.1,6.4,7.8
		c-0.7,0.2-1.4,0.3-2.1,0.3c-0.5,0-1,0-1.5-0.1c1,3.2,4,5.5,7.5,5.6c-2.7,2.1-6.2,3.4-9.9,3.4c-0.6,0-1.3,0-1.9-0.1
		c3.5,2.3,7.7,3.6,12.3,3.6c14.7,0,22.8-12.2,22.8-22.8c0-0.3,0-0.7,0-1c1.6-1.1,2.9-2.5,4-4.1c-1.4,0.6-3,1.1-4.6,1.3
		c1.7-1,2.9-2.6,3.5-4.4c-1.5,0.9-3.3,1.6-5.1,1.9C50.9,24.1,48.8,23.2,46.5,23.2"/>
</g>
</svg>
